solid 
 facet normal -1.000000e+00  0.000000e+00  0.000000e+00
   outer loop
     vertex  0.000000e+00  1.050000e+03  1.200000e+02
     vertex  0.000000e+00  1.300000e+03  1.200000e+02
     vertex  0.000000e+00  1.300000e+03  0.000000e+00
   endloop
 endfacet
 facet normal -1.000000e+00  0.000000e+00  0.000000e+00
   outer loop
     vertex  0.000000e+00  8.500000e+02  1.200000e+02
     vertex  0.000000e+00  1.050000e+03  1.200000e+02
     vertex  0.000000e+00  1.300000e+03  0.000000e+00
   endloop
 endfacet
 facet normal -1.000000e+00  0.000000e+00 -0.000000e+00
   outer loop
     vertex  0.000000e+00  1.050000e+03  3.600000e+02
     vertex  0.000000e+00  1.050000e+03  1.200000e+02
     vertex  0.000000e+00  8.500000e+02  1.200000e+02
   endloop
 endfacet
 facet normal -1.000000e+00  0.000000e+00 -0.000000e+00
   outer loop
     vertex  0.000000e+00  1.120000e+03  4.700000e+02
     vertex  0.000000e+00  1.120000e+03  3.600000e+02
     vertex  0.000000e+00  1.050000e+03  3.600000e+02
   endloop
 endfacet
 facet normal -1.000000e+00  0.000000e+00  0.000000e+00
   outer loop
     vertex  0.000000e+00  8.500000e+02  3.600000e+02
     vertex  0.000000e+00  1.120000e+03  4.700000e+02
     vertex  0.000000e+00  1.050000e+03  3.600000e+02
   endloop
 endfacet
 facet normal -1.000000e+00  0.000000e+00  0.000000e+00
   outer loop
     vertex  0.000000e+00  8.500000e+02  3.600000e+02
     vertex  0.000000e+00  1.050000e+03  3.600000e+02
     vertex  0.000000e+00  8.500000e+02  1.200000e+02
   endloop
 endfacet
 facet normal -1.000000e+00  0.000000e+00  0.000000e+00
   outer loop
     vertex  0.000000e+00  4.500000e+02  3.600000e+02
     vertex  0.000000e+00  1.120000e+03  4.700000e+02
     vertex  0.000000e+00  8.500000e+02  3.600000e+02
   endloop
 endfacet
 facet normal -1.000000e+00  0.000000e+00 -0.000000e+00
   outer loop
     vertex  0.000000e+00  4.500000e+02  3.600000e+02
     vertex  0.000000e+00  4.500000e+02  1.200000e+02
     vertex  0.000000e+00  2.500000e+02  1.200000e+02
   endloop
 endfacet
 facet normal -1.000000e+00  0.000000e+00  0.000000e+00
   outer loop
     vertex  0.000000e+00  0.000000e+00  0.000000e+00
     vertex  0.000000e+00  2.500000e+02  1.200000e+02
     vertex  0.000000e+00  4.500000e+02  1.200000e+02
   endloop
 endfacet
 facet normal -1.000000e+00  0.000000e+00  0.000000e+00
   outer loop
     vertex  0.000000e+00  2.500000e+02  3.600000e+02
     vertex  0.000000e+00  4.500000e+02  3.600000e+02
     vertex  0.000000e+00  2.500000e+02  1.200000e+02
   endloop
 endfacet
 facet normal -1.000000e+00  0.000000e+00  0.000000e+00
   outer loop
     vertex  0.000000e+00  0.000000e+00  1.200000e+02
     vertex  0.000000e+00  2.500000e+02  1.200000e+02
     vertex  0.000000e+00  0.000000e+00  0.000000e+00
   endloop
 endfacet
 facet normal -1.000000e+00  0.000000e+00  0.000000e+00
   outer loop
     vertex  0.000000e+00  1.800000e+02  4.700000e+02
     vertex  0.000000e+00  2.500000e+02  3.600000e+02
     vertex  0.000000e+00  1.800000e+02  3.600000e+02
   endloop
 endfacet
 facet normal -1.000000e+00  0.000000e+00  0.000000e+00
   outer loop
     vertex  0.000000e+00  1.800000e+02  4.700000e+02
     vertex  0.000000e+00  1.120000e+03  4.700000e+02
     vertex  0.000000e+00  4.500000e+02  3.600000e+02
   endloop
 endfacet
 facet normal -1.000000e+00  0.000000e+00  0.000000e+00
   outer loop
     vertex  0.000000e+00  1.800000e+02  4.700000e+02
     vertex  0.000000e+00  4.500000e+02  3.600000e+02
     vertex  0.000000e+00  2.500000e+02  3.600000e+02
   endloop
 endfacet
 facet normal -1.000000e+00  0.000000e+00  0.000000e+00
   outer loop
     vertex  0.000000e+00  0.000000e+00  0.000000e+00
     vertex  0.000000e+00  8.500000e+02  1.200000e+02
     vertex  0.000000e+00  1.300000e+03  0.000000e+00
   endloop
 endfacet
 facet normal -1.000000e+00  0.000000e+00  0.000000e+00
   outer loop
     vertex  0.000000e+00  0.000000e+00  0.000000e+00
     vertex  0.000000e+00  4.500000e+02  1.200000e+02
     vertex  0.000000e+00  8.500000e+02  1.200000e+02
   endloop
 endfacet
 facet normal  0.000000e+00 -1.000000e+00 -0.000000e+00
   outer loop
     vertex  1.900000e+02  0.000000e+00  1.200000e+02
     vertex  0.000000e+00  0.000000e+00  0.000000e+00
     vertex  1.900000e+02  0.000000e+00  0.000000e+00
   endloop
 endfacet
 facet normal -0.000000e+00 -1.000000e+00  0.000000e+00
   outer loop
     vertex  1.900000e+02  0.000000e+00  1.200000e+02
     vertex  0.000000e+00  0.000000e+00  1.200000e+02
     vertex  0.000000e+00  0.000000e+00  0.000000e+00
   endloop
 endfacet
 facet normal  0.000000e+00  0.000000e+00  1.000000e+00
   outer loop
     vertex  1.900000e+02  2.500000e+02  1.200000e+02
     vertex  0.000000e+00  2.500000e+02  1.200000e+02
     vertex  0.000000e+00  0.000000e+00  1.200000e+02
   endloop
 endfacet
 facet normal  0.000000e+00  0.000000e+00  1.000000e+00
   outer loop
     vertex  1.900000e+02  2.500000e+02  1.200000e+02
     vertex  0.000000e+00  0.000000e+00  1.200000e+02
     vertex  1.900000e+02  0.000000e+00  1.200000e+02
   endloop
 endfacet
 facet normal  0.000000e+00 -1.000000e+00 -0.000000e+00
   outer loop
     vertex  1.900000e+02  2.500000e+02  3.600000e+02
     vertex  0.000000e+00  2.500000e+02  1.200000e+02
     vertex  1.900000e+02  2.500000e+02  1.200000e+02
   endloop
 endfacet
 facet normal -0.000000e+00 -1.000000e+00  0.000000e+00
   outer loop
     vertex  1.900000e+02  2.500000e+02  3.600000e+02
     vertex  0.000000e+00  2.500000e+02  3.600000e+02
     vertex  0.000000e+00  2.500000e+02  1.200000e+02
   endloop
 endfacet
 facet normal  0.000000e+00  1.000000e+00  0.000000e+00
   outer loop
     vertex  1.900000e+02  4.500000e+02  3.600000e+02
     vertex  1.900000e+02  4.500000e+02  1.200000e+02
     vertex  0.000000e+00  4.500000e+02  1.200000e+02
   endloop
 endfacet
 facet normal  0.000000e+00  1.000000e+00  0.000000e+00
   outer loop
     vertex  1.900000e+02  4.500000e+02  3.600000e+02
     vertex  0.000000e+00  4.500000e+02  1.200000e+02
     vertex  0.000000e+00  4.500000e+02  3.600000e+02
   endloop
 endfacet
 facet normal -0.000000e+00  0.000000e+00 -1.000000e+00
   outer loop
     vertex  1.900000e+02  1.300000e+03  0.000000e+00
     vertex  0.000000e+00  0.000000e+00  0.000000e+00
     vertex  0.000000e+00  1.300000e+03  0.000000e+00
   endloop
 endfacet
 facet normal  0.000000e+00 -0.000000e+00 -1.000000e+00
   outer loop
     vertex  1.900000e+02  1.300000e+03  0.000000e+00
     vertex  1.900000e+02  0.000000e+00  0.000000e+00
     vertex  0.000000e+00  0.000000e+00  0.000000e+00
   endloop
 endfacet
 facet normal  0.000000e+00  0.000000e+00  1.000000e+00
   outer loop
     vertex  0.000000e+00  8.500000e+02  1.200000e+02
     vertex  0.000000e+00  4.500000e+02  1.200000e+02
     vertex  1.900000e+02  4.500000e+02  1.200000e+02
   endloop
 endfacet
 facet normal  0.000000e+00  0.000000e+00  1.000000e+00
   outer loop
     vertex  1.900000e+02  8.500000e+02  1.200000e+02
     vertex  0.000000e+00  8.500000e+02  1.200000e+02
     vertex  1.900000e+02  4.500000e+02  1.200000e+02
   endloop
 endfacet
 facet normal  0.000000e+00 -1.000000e+00 -0.000000e+00
   outer loop
     vertex  1.900000e+02  8.500000e+02  3.600000e+02
     vertex  0.000000e+00  8.500000e+02  1.200000e+02
     vertex  1.900000e+02  8.500000e+02  1.200000e+02
   endloop
 endfacet
 facet normal -0.000000e+00 -1.000000e+00  0.000000e+00
   outer loop
     vertex  1.900000e+02  8.500000e+02  3.600000e+02
     vertex  0.000000e+00  8.500000e+02  3.600000e+02
     vertex  0.000000e+00  8.500000e+02  1.200000e+02
   endloop
 endfacet
 facet normal  0.000000e+00  1.000000e+00  0.000000e+00
   outer loop
     vertex  1.900000e+02  1.050000e+03  3.600000e+02
     vertex  1.900000e+02  1.050000e+03  1.200000e+02
     vertex  0.000000e+00  1.050000e+03  1.200000e+02
   endloop
 endfacet
 facet normal  0.000000e+00  1.000000e+00  0.000000e+00
   outer loop
     vertex  1.900000e+02  1.050000e+03  3.600000e+02
     vertex  0.000000e+00  1.050000e+03  1.200000e+02
     vertex  0.000000e+00  1.050000e+03  3.600000e+02
   endloop
 endfacet
 facet normal  0.000000e+00  0.000000e+00  1.000000e+00
   outer loop
     vertex  1.900000e+02  1.300000e+03  1.200000e+02
     vertex  0.000000e+00  1.300000e+03  1.200000e+02
     vertex  0.000000e+00  1.050000e+03  1.200000e+02
   endloop
 endfacet
 facet normal  0.000000e+00  0.000000e+00  1.000000e+00
   outer loop
     vertex  1.900000e+02  1.300000e+03  1.200000e+02
     vertex  0.000000e+00  1.050000e+03  1.200000e+02
     vertex  1.900000e+02  1.050000e+03  1.200000e+02
   endloop
 endfacet
 facet normal  0.000000e+00  1.000000e+00  0.000000e+00
   outer loop
     vertex  1.900000e+02  1.300000e+03  1.200000e+02
     vertex  1.900000e+02  1.300000e+03  0.000000e+00
     vertex  0.000000e+00  1.300000e+03  0.000000e+00
   endloop
 endfacet
 facet normal  0.000000e+00  1.000000e+00  0.000000e+00
   outer loop
     vertex  1.900000e+02  1.300000e+03  1.200000e+02
     vertex  0.000000e+00  1.300000e+03  0.000000e+00
     vertex  0.000000e+00  1.300000e+03  1.200000e+02
   endloop
 endfacet
 facet normal  1.000000e+00 -0.000000e+00  0.000000e+00
   outer loop
     vertex  1.900000e+02  1.050000e+03  1.200000e+02
     vertex  1.900000e+02  1.300000e+03  0.000000e+00
     vertex  1.900000e+02  1.300000e+03  1.200000e+02
   endloop
 endfacet
 facet normal  1.000000e+00  0.000000e+00  0.000000e+00
   outer loop
     vertex  1.900000e+02  9.800000e+02  1.800000e+02
     vertex  1.900000e+02  9.800000e+02  1.400000e+02
     vertex  1.900000e+02  1.050000e+03  1.200000e+02
   endloop
 endfacet
 facet normal  1.000000e+00  0.000000e+00  0.000000e+00
   outer loop
     vertex  1.900000e+02  8.500000e+02  1.200000e+02
     vertex  1.900000e+02  9.800000e+02  1.400000e+02
     vertex  1.900000e+02  9.000000e+02  1.400000e+02
   endloop
 endfacet
 facet normal  1.000000e+00 -0.000000e+00  0.000000e+00
   outer loop
     vertex  1.900000e+02  8.500000e+02  1.200000e+02
     vertex  1.900000e+02  1.300000e+03  0.000000e+00
     vertex  1.900000e+02  1.050000e+03  1.200000e+02
   endloop
 endfacet
 facet normal  1.000000e+00  0.000000e+00  0.000000e+00
   outer loop
     vertex  1.900000e+02  8.500000e+02  1.200000e+02
     vertex  1.900000e+02  1.050000e+03  1.200000e+02
     vertex  1.900000e+02  9.800000e+02  1.400000e+02
   endloop
 endfacet
 facet normal  1.000000e+00  0.000000e+00  0.000000e+00
   outer loop
     vertex  1.900000e+02  9.000000e+02  1.800000e+02
     vertex  1.900000e+02  8.500000e+02  1.200000e+02
     vertex  1.900000e+02  9.000000e+02  1.400000e+02
   endloop
 endfacet
 facet normal  1.000000e+00  0.000000e+00  0.000000e+00
   outer loop
     vertex  1.900000e+02  1.050000e+03  3.600000e+02
     vertex  1.900000e+02  9.800000e+02  1.800000e+02
     vertex  1.900000e+02  1.050000e+03  1.200000e+02
   endloop
 endfacet
 facet normal  1.000000e+00  0.000000e+00  0.000000e+00
   outer loop
     vertex  1.900000e+02  8.500000e+02  3.600000e+02
     vertex  1.900000e+02  9.000000e+02  1.800000e+02
     vertex  1.900000e+02  9.800000e+02  1.800000e+02
   endloop
 endfacet
 facet normal  1.000000e+00 -0.000000e+00  0.000000e+00
   outer loop
     vertex  1.900000e+02  8.500000e+02  3.600000e+02
     vertex  1.900000e+02  9.800000e+02  1.800000e+02
     vertex  1.900000e+02  1.050000e+03  3.600000e+02
   endloop
 endfacet
 facet normal  1.000000e+00  0.000000e+00  0.000000e+00
   outer loop
     vertex  1.900000e+02  8.500000e+02  3.600000e+02
     vertex  1.900000e+02  8.500000e+02  1.200000e+02
     vertex  1.900000e+02  9.000000e+02  1.800000e+02
   endloop
 endfacet
 facet normal  1.000000e+00  0.000000e+00  0.000000e+00
   outer loop
     vertex  1.900000e+02  3.900000e+02  1.800000e+02
     vertex  1.900000e+02  3.900000e+02  1.400000e+02
     vertex  1.900000e+02  4.500000e+02  1.200000e+02
   endloop
 endfacet
 facet normal  1.000000e+00  0.000000e+00  0.000000e+00
   outer loop
     vertex  1.900000e+02  2.500000e+02  1.200000e+02
     vertex  1.900000e+02  3.100000e+02  1.400000e+02
     vertex  1.900000e+02  3.100000e+02  1.800000e+02
   endloop
 endfacet
 facet normal  1.000000e+00  0.000000e+00  0.000000e+00
   outer loop
     vertex  1.900000e+02  2.500000e+02  1.200000e+02
     vertex  1.900000e+02  3.900000e+02  1.400000e+02
     vertex  1.900000e+02  3.100000e+02  1.400000e+02
   endloop
 endfacet
 facet normal  1.000000e+00  0.000000e+00  0.000000e+00
   outer loop
     vertex  1.900000e+02  2.500000e+02  1.200000e+02
     vertex  1.900000e+02  4.500000e+02  1.200000e+02
     vertex  1.900000e+02  3.900000e+02  1.400000e+02
   endloop
 endfacet
 facet normal  1.000000e+00  0.000000e+00  0.000000e+00
   outer loop
     vertex  1.900000e+02  4.500000e+02  3.600000e+02
     vertex  1.900000e+02  3.900000e+02  1.800000e+02
     vertex  1.900000e+02  4.500000e+02  1.200000e+02
   endloop
 endfacet
 facet normal  1.000000e+00  0.000000e+00  0.000000e+00
   outer loop
     vertex  1.900000e+02  0.000000e+00  0.000000e+00
     vertex  1.900000e+02  4.500000e+02  1.200000e+02
     vertex  1.900000e+02  2.500000e+02  1.200000e+02
   endloop
 endfacet
 facet normal  1.000000e+00  0.000000e+00  0.000000e+00
   outer loop
     vertex  1.900000e+02  2.500000e+02  3.600000e+02
     vertex  1.900000e+02  3.100000e+02  1.800000e+02
     vertex  1.900000e+02  3.900000e+02  1.800000e+02
   endloop
 endfacet
 facet normal  1.000000e+00 -0.000000e+00  0.000000e+00
   outer loop
     vertex  1.900000e+02  2.500000e+02  3.600000e+02
     vertex  1.900000e+02  3.900000e+02  1.800000e+02
     vertex  1.900000e+02  4.500000e+02  3.600000e+02
   endloop
 endfacet
 facet normal  1.000000e+00  0.000000e+00  0.000000e+00
   outer loop
     vertex  1.900000e+02  2.500000e+02  3.600000e+02
     vertex  1.900000e+02  2.500000e+02  1.200000e+02
     vertex  1.900000e+02  3.100000e+02  1.800000e+02
   endloop
 endfacet
 facet normal  1.000000e+00 -0.000000e+00  0.000000e+00
   outer loop
     vertex  1.900000e+02  0.000000e+00  1.200000e+02
     vertex  1.900000e+02  0.000000e+00  0.000000e+00
     vertex  1.900000e+02  2.500000e+02  1.200000e+02
   endloop
 endfacet
 facet normal  1.000000e+00  0.000000e+00  0.000000e+00
   outer loop
     vertex  1.900000e+02  0.000000e+00  0.000000e+00
     vertex  1.900000e+02  1.300000e+03  0.000000e+00
     vertex  1.900000e+02  8.500000e+02  1.200000e+02
   endloop
 endfacet
 facet normal  1.000000e+00  0.000000e+00  0.000000e+00
   outer loop
     vertex  1.900000e+02  0.000000e+00  0.000000e+00
     vertex  1.900000e+02  8.500000e+02  1.200000e+02
     vertex  1.900000e+02  4.500000e+02  1.200000e+02
   endloop
 endfacet
 facet normal  0.000000e+00 -1.000000e+00 -0.000000e+00
   outer loop
     vertex  8.100000e+02  1.800000e+02  4.700000e+02
     vertex  0.000000e+00  1.800000e+02  3.600000e+02
     vertex  8.100000e+02  1.800000e+02  3.600000e+02
   endloop
 endfacet
 facet normal -0.000000e+00 -1.000000e+00  0.000000e+00
   outer loop
     vertex  8.100000e+02  1.800000e+02  4.700000e+02
     vertex  0.000000e+00  1.800000e+02  4.700000e+02
     vertex  0.000000e+00  1.800000e+02  3.600000e+02
   endloop
 endfacet
 facet normal  0.000000e+00 -1.000000e+00 -0.000000e+00
   outer loop
     vertex  6.200000e+02  3.100000e+02  1.800000e+02
     vertex  1.900000e+02  3.100000e+02  1.400000e+02
     vertex  6.200000e+02  3.100000e+02  1.400000e+02
   endloop
 endfacet
 facet normal -0.000000e+00 -1.000000e+00  0.000000e+00
   outer loop
     vertex  6.200000e+02  3.100000e+02  1.800000e+02
     vertex  1.900000e+02  3.100000e+02  1.800000e+02
     vertex  1.900000e+02  3.100000e+02  1.400000e+02
   endloop
 endfacet
 facet normal -0.000000e+00  0.000000e+00 -1.000000e+00
   outer loop
     vertex  6.200000e+02  3.900000e+02  1.400000e+02
     vertex  1.900000e+02  3.100000e+02  1.400000e+02
     vertex  1.900000e+02  3.900000e+02  1.400000e+02
   endloop
 endfacet
 facet normal  0.000000e+00 -0.000000e+00 -1.000000e+00
   outer loop
     vertex  6.200000e+02  3.900000e+02  1.400000e+02
     vertex  6.200000e+02  3.100000e+02  1.400000e+02
     vertex  1.900000e+02  3.100000e+02  1.400000e+02
   endloop
 endfacet
 facet normal  0.000000e+00  0.000000e+00  1.000000e+00
   outer loop
     vertex  6.200000e+02  3.900000e+02  1.800000e+02
     vertex  1.900000e+02  3.900000e+02  1.800000e+02
     vertex  1.900000e+02  3.100000e+02  1.800000e+02
   endloop
 endfacet
 facet normal  0.000000e+00  0.000000e+00  1.000000e+00
   outer loop
     vertex  6.200000e+02  3.900000e+02  1.800000e+02
     vertex  1.900000e+02  3.100000e+02  1.800000e+02
     vertex  6.200000e+02  3.100000e+02  1.800000e+02
   endloop
 endfacet
 facet normal  0.000000e+00  1.000000e+00  0.000000e+00
   outer loop
     vertex  6.200000e+02  3.900000e+02  1.800000e+02
     vertex  6.200000e+02  3.900000e+02  1.400000e+02
     vertex  1.900000e+02  3.900000e+02  1.400000e+02
   endloop
 endfacet
 facet normal  0.000000e+00  1.000000e+00  0.000000e+00
   outer loop
     vertex  6.200000e+02  3.900000e+02  1.800000e+02
     vertex  1.900000e+02  3.900000e+02  1.400000e+02
     vertex  1.900000e+02  3.900000e+02  1.800000e+02
   endloop
 endfacet
 facet normal -0.000000e+00  0.000000e+00 -1.000000e+00
   outer loop
     vertex  1.900000e+02  2.500000e+02  3.600000e+02
     vertex  0.000000e+00  1.800000e+02  3.600000e+02
     vertex  0.000000e+00  2.500000e+02  3.600000e+02
   endloop
 endfacet
 facet normal  0.000000e+00  0.000000e+00 -1.000000e+00
   outer loop
     vertex  0.000000e+00  8.500000e+02  3.600000e+02
     vertex  1.900000e+02  4.500000e+02  3.600000e+02
     vertex  0.000000e+00  4.500000e+02  3.600000e+02
   endloop
 endfacet
 facet normal  0.000000e+00  0.000000e+00 -1.000000e+00
   outer loop
     vertex  8.100000e+02  1.800000e+02  3.600000e+02
     vertex  0.000000e+00  1.800000e+02  3.600000e+02
     vertex  1.900000e+02  2.500000e+02  3.600000e+02
   endloop
 endfacet
 facet normal  0.000000e+00  0.000000e+00 -1.000000e+00
   outer loop
     vertex  8.100000e+02  1.800000e+02  3.600000e+02
     vertex  1.900000e+02  2.500000e+02  3.600000e+02
     vertex  6.200000e+02  2.500000e+02  3.600000e+02
   endloop
 endfacet
 facet normal -0.000000e+00 -0.000000e+00 -1.000000e+00
   outer loop
     vertex  1.900000e+02  8.500000e+02  3.600000e+02
     vertex  1.900000e+02  4.500000e+02  3.600000e+02
     vertex  0.000000e+00  8.500000e+02  3.600000e+02
   endloop
 endfacet
 facet normal -0.000000e+00 -0.000000e+00 -1.000000e+00
   outer loop
     vertex  8.100000e+02  2.500000e+02  3.600000e+02
     vertex  8.100000e+02  1.800000e+02  3.600000e+02
     vertex  6.200000e+02  2.500000e+02  3.600000e+02
   endloop
 endfacet
 facet normal -0.000000e+00  0.000000e+00 -1.000000e+00
   outer loop
     vertex  6.200000e+02  4.500000e+02  3.600000e+02
     vertex  1.900000e+02  2.500000e+02  3.600000e+02
     vertex  1.900000e+02  4.500000e+02  3.600000e+02
   endloop
 endfacet
 facet normal  0.000000e+00 -0.000000e+00 -1.000000e+00
   outer loop
     vertex  6.200000e+02  4.500000e+02  3.600000e+02
     vertex  6.200000e+02  2.500000e+02  3.600000e+02
     vertex  1.900000e+02  2.500000e+02  3.600000e+02
   endloop
 endfacet
 facet normal  0.000000e+00  0.000000e+00 -1.000000e+00
   outer loop
     vertex  1.900000e+02  1.050000e+03  3.600000e+02
     vertex  0.000000e+00  1.050000e+03  3.600000e+02
     vertex  0.000000e+00  1.120000e+03  3.600000e+02
   endloop
 endfacet
 facet normal  0.000000e+00  0.000000e+00 -1.000000e+00
   outer loop
     vertex  6.200000e+02  8.500000e+02  3.600000e+02
     vertex  8.100000e+02  4.500000e+02  3.600000e+02
     vertex  6.200000e+02  4.500000e+02  3.600000e+02
   endloop
 endfacet
 facet normal -0.000000e+00  0.000000e+00 -1.000000e+00
   outer loop
     vertex  6.200000e+02  8.500000e+02  3.600000e+02
     vertex  1.900000e+02  4.500000e+02  3.600000e+02
     vertex  1.900000e+02  8.500000e+02  3.600000e+02
   endloop
 endfacet
 facet normal  0.000000e+00 -0.000000e+00 -1.000000e+00
   outer loop
     vertex  6.200000e+02  8.500000e+02  3.600000e+02
     vertex  6.200000e+02  4.500000e+02  3.600000e+02
     vertex  1.900000e+02  4.500000e+02  3.600000e+02
   endloop
 endfacet
 facet normal -0.000000e+00 -0.000000e+00 -1.000000e+00
   outer loop
     vertex  8.100000e+02  8.500000e+02  3.600000e+02
     vertex  8.100000e+02  4.500000e+02  3.600000e+02
     vertex  6.200000e+02  8.500000e+02  3.600000e+02
   endloop
 endfacet
 facet normal -0.000000e+00  0.000000e+00 -1.000000e+00
   outer loop
     vertex  6.200000e+02  1.050000e+03  3.600000e+02
     vertex  1.900000e+02  8.500000e+02  3.600000e+02
     vertex  1.900000e+02  1.050000e+03  3.600000e+02
   endloop
 endfacet
 facet normal  0.000000e+00 -0.000000e+00 -1.000000e+00
   outer loop
     vertex  6.200000e+02  1.050000e+03  3.600000e+02
     vertex  6.200000e+02  8.500000e+02  3.600000e+02
     vertex  1.900000e+02  8.500000e+02  3.600000e+02
   endloop
 endfacet
 facet normal  0.000000e+00 -0.000000e+00 -1.000000e+00
   outer loop
     vertex  8.100000e+02  1.120000e+03  3.600000e+02
     vertex  8.100000e+02  1.050000e+03  3.600000e+02
     vertex  6.200000e+02  1.050000e+03  3.600000e+02
   endloop
 endfacet
 facet normal -0.000000e+00  0.000000e+00 -1.000000e+00
   outer loop
     vertex  8.100000e+02  1.120000e+03  3.600000e+02
     vertex  1.900000e+02  1.050000e+03  3.600000e+02
     vertex  0.000000e+00  1.120000e+03  3.600000e+02
   endloop
 endfacet
 facet normal  0.000000e+00  0.000000e+00 -1.000000e+00
   outer loop
     vertex  8.100000e+02  1.120000e+03  3.600000e+02
     vertex  6.200000e+02  1.050000e+03  3.600000e+02
     vertex  1.900000e+02  1.050000e+03  3.600000e+02
   endloop
 endfacet
 facet normal  0.000000e+00  0.000000e+00  1.000000e+00
   outer loop
     vertex  0.000000e+00  1.120000e+03  4.700000e+02
     vertex  0.000000e+00  1.800000e+02  4.700000e+02
     vertex  8.100000e+02  1.800000e+02  4.700000e+02
   endloop
 endfacet
 facet normal  0.000000e+00  0.000000e+00  1.000000e+00
   outer loop
     vertex  8.100000e+02  1.120000e+03  4.700000e+02
     vertex  0.000000e+00  1.120000e+03  4.700000e+02
     vertex  8.100000e+02  1.800000e+02  4.700000e+02
   endloop
 endfacet
 facet normal  0.000000e+00 -1.000000e+00 -0.000000e+00
   outer loop
     vertex  6.200000e+02  9.000000e+02  1.800000e+02
     vertex  1.900000e+02  9.000000e+02  1.400000e+02
     vertex  6.200000e+02  9.000000e+02  1.400000e+02
   endloop
 endfacet
 facet normal -0.000000e+00 -1.000000e+00  0.000000e+00
   outer loop
     vertex  6.200000e+02  9.000000e+02  1.800000e+02
     vertex  1.900000e+02  9.000000e+02  1.800000e+02
     vertex  1.900000e+02  9.000000e+02  1.400000e+02
   endloop
 endfacet
 facet normal -0.000000e+00  0.000000e+00 -1.000000e+00
   outer loop
     vertex  6.200000e+02  9.800000e+02  1.400000e+02
     vertex  1.900000e+02  9.000000e+02  1.400000e+02
     vertex  1.900000e+02  9.800000e+02  1.400000e+02
   endloop
 endfacet
 facet normal  0.000000e+00 -0.000000e+00 -1.000000e+00
   outer loop
     vertex  6.200000e+02  9.800000e+02  1.400000e+02
     vertex  6.200000e+02  9.000000e+02  1.400000e+02
     vertex  1.900000e+02  9.000000e+02  1.400000e+02
   endloop
 endfacet
 facet normal  0.000000e+00  0.000000e+00  1.000000e+00
   outer loop
     vertex  6.200000e+02  9.800000e+02  1.800000e+02
     vertex  1.900000e+02  9.800000e+02  1.800000e+02
     vertex  1.900000e+02  9.000000e+02  1.800000e+02
   endloop
 endfacet
 facet normal  0.000000e+00  0.000000e+00  1.000000e+00
   outer loop
     vertex  6.200000e+02  9.800000e+02  1.800000e+02
     vertex  1.900000e+02  9.000000e+02  1.800000e+02
     vertex  6.200000e+02  9.000000e+02  1.800000e+02
   endloop
 endfacet
 facet normal  0.000000e+00  1.000000e+00  0.000000e+00
   outer loop
     vertex  6.200000e+02  9.800000e+02  1.800000e+02
     vertex  6.200000e+02  9.800000e+02  1.400000e+02
     vertex  1.900000e+02  9.800000e+02  1.400000e+02
   endloop
 endfacet
 facet normal  0.000000e+00  1.000000e+00  0.000000e+00
   outer loop
     vertex  6.200000e+02  9.800000e+02  1.800000e+02
     vertex  1.900000e+02  9.800000e+02  1.400000e+02
     vertex  1.900000e+02  9.800000e+02  1.800000e+02
   endloop
 endfacet
 facet normal  0.000000e+00  1.000000e+00  0.000000e+00
   outer loop
     vertex  8.100000e+02  1.120000e+03  4.700000e+02
     vertex  8.100000e+02  1.120000e+03  3.600000e+02
     vertex  0.000000e+00  1.120000e+03  3.600000e+02
   endloop
 endfacet
 facet normal  0.000000e+00  1.000000e+00  0.000000e+00
   outer loop
     vertex  8.100000e+02  1.120000e+03  4.700000e+02
     vertex  0.000000e+00  1.120000e+03  3.600000e+02
     vertex  0.000000e+00  1.120000e+03  4.700000e+02
   endloop
 endfacet
 facet normal -1.000000e+00  0.000000e+00  0.000000e+00
   outer loop
     vertex  6.200000e+02  1.050000e+03  1.200000e+02
     vertex  6.200000e+02  1.300000e+03  1.200000e+02
     vertex  6.200000e+02  1.300000e+03  0.000000e+00
   endloop
 endfacet
 facet normal -1.000000e+00  0.000000e+00  0.000000e+00
   outer loop
     vertex  6.200000e+02  9.800000e+02  1.800000e+02
     vertex  6.200000e+02  1.050000e+03  1.200000e+02
     vertex  6.200000e+02  9.800000e+02  1.400000e+02
   endloop
 endfacet
 facet normal -1.000000e+00  0.000000e+00  0.000000e+00
   outer loop
     vertex  6.200000e+02  8.500000e+02  1.200000e+02
     vertex  6.200000e+02  9.000000e+02  1.400000e+02
     vertex  6.200000e+02  9.800000e+02  1.400000e+02
   endloop
 endfacet
 facet normal -1.000000e+00  0.000000e+00  0.000000e+00
   outer loop
     vertex  6.200000e+02  8.500000e+02  1.200000e+02
     vertex  6.200000e+02  1.050000e+03  1.200000e+02
     vertex  6.200000e+02  1.300000e+03  0.000000e+00
   endloop
 endfacet
 facet normal -1.000000e+00  0.000000e+00  0.000000e+00
   outer loop
     vertex  6.200000e+02  8.500000e+02  1.200000e+02
     vertex  6.200000e+02  9.800000e+02  1.400000e+02
     vertex  6.200000e+02  1.050000e+03  1.200000e+02
   endloop
 endfacet
 facet normal -1.000000e+00  0.000000e+00 -0.000000e+00
   outer loop
     vertex  6.200000e+02  9.000000e+02  1.800000e+02
     vertex  6.200000e+02  9.000000e+02  1.400000e+02
     vertex  6.200000e+02  8.500000e+02  1.200000e+02
   endloop
 endfacet
 facet normal -1.000000e+00  0.000000e+00 -0.000000e+00
   outer loop
     vertex  6.200000e+02  1.050000e+03  3.600000e+02
     vertex  6.200000e+02  1.050000e+03  1.200000e+02
     vertex  6.200000e+02  9.800000e+02  1.800000e+02
   endloop
 endfacet
 facet normal -1.000000e+00  0.000000e+00  0.000000e+00
   outer loop
     vertex  6.200000e+02  8.500000e+02  3.600000e+02
     vertex  6.200000e+02  9.800000e+02  1.800000e+02
     vertex  6.200000e+02  9.000000e+02  1.800000e+02
   endloop
 endfacet
 facet normal -1.000000e+00  0.000000e+00  0.000000e+00
   outer loop
     vertex  6.200000e+02  8.500000e+02  3.600000e+02
     vertex  6.200000e+02  1.050000e+03  3.600000e+02
     vertex  6.200000e+02  9.800000e+02  1.800000e+02
   endloop
 endfacet
 facet normal -1.000000e+00  0.000000e+00  0.000000e+00
   outer loop
     vertex  6.200000e+02  8.500000e+02  3.600000e+02
     vertex  6.200000e+02  9.000000e+02  1.800000e+02
     vertex  6.200000e+02  8.500000e+02  1.200000e+02
   endloop
 endfacet
 facet normal -1.000000e+00  0.000000e+00  0.000000e+00
   outer loop
     vertex  6.200000e+02  3.900000e+02  1.800000e+02
     vertex  6.200000e+02  4.500000e+02  1.200000e+02
     vertex  6.200000e+02  3.900000e+02  1.400000e+02
   endloop
 endfacet
 facet normal -1.000000e+00  0.000000e+00  0.000000e+00
   outer loop
     vertex  6.200000e+02  2.500000e+02  1.200000e+02
     vertex  6.200000e+02  3.100000e+02  1.800000e+02
     vertex  6.200000e+02  3.100000e+02  1.400000e+02
   endloop
 endfacet
 facet normal -1.000000e+00  0.000000e+00  0.000000e+00
   outer loop
     vertex  6.200000e+02  2.500000e+02  1.200000e+02
     vertex  6.200000e+02  3.100000e+02  1.400000e+02
     vertex  6.200000e+02  3.900000e+02  1.400000e+02
   endloop
 endfacet
 facet normal -1.000000e+00  0.000000e+00  0.000000e+00
   outer loop
     vertex  6.200000e+02  2.500000e+02  1.200000e+02
     vertex  6.200000e+02  3.900000e+02  1.400000e+02
     vertex  6.200000e+02  4.500000e+02  1.200000e+02
   endloop
 endfacet
 facet normal -1.000000e+00  0.000000e+00 -0.000000e+00
   outer loop
     vertex  6.200000e+02  4.500000e+02  3.600000e+02
     vertex  6.200000e+02  4.500000e+02  1.200000e+02
     vertex  6.200000e+02  3.900000e+02  1.800000e+02
   endloop
 endfacet
 facet normal -1.000000e+00  0.000000e+00  0.000000e+00
   outer loop
     vertex  6.200000e+02  0.000000e+00  0.000000e+00
     vertex  6.200000e+02  2.500000e+02  1.200000e+02
     vertex  6.200000e+02  4.500000e+02  1.200000e+02
   endloop
 endfacet
 facet normal -1.000000e+00  0.000000e+00  0.000000e+00
   outer loop
     vertex  6.200000e+02  2.500000e+02  3.600000e+02
     vertex  6.200000e+02  3.900000e+02  1.800000e+02
     vertex  6.200000e+02  3.100000e+02  1.800000e+02
   endloop
 endfacet
 facet normal -1.000000e+00  0.000000e+00  0.000000e+00
   outer loop
     vertex  6.200000e+02  2.500000e+02  3.600000e+02
     vertex  6.200000e+02  4.500000e+02  3.600000e+02
     vertex  6.200000e+02  3.900000e+02  1.800000e+02
   endloop
 endfacet
 facet normal -1.000000e+00  0.000000e+00  0.000000e+00
   outer loop
     vertex  6.200000e+02  2.500000e+02  3.600000e+02
     vertex  6.200000e+02  3.100000e+02  1.800000e+02
     vertex  6.200000e+02  2.500000e+02  1.200000e+02
   endloop
 endfacet
 facet normal -1.000000e+00  0.000000e+00  0.000000e+00
   outer loop
     vertex  6.200000e+02  0.000000e+00  1.200000e+02
     vertex  6.200000e+02  2.500000e+02  1.200000e+02
     vertex  6.200000e+02  0.000000e+00  0.000000e+00
   endloop
 endfacet
 facet normal -1.000000e+00  0.000000e+00  0.000000e+00
   outer loop
     vertex  6.200000e+02  0.000000e+00  0.000000e+00
     vertex  6.200000e+02  8.500000e+02  1.200000e+02
     vertex  6.200000e+02  1.300000e+03  0.000000e+00
   endloop
 endfacet
 facet normal -1.000000e+00  0.000000e+00  0.000000e+00
   outer loop
     vertex  6.200000e+02  0.000000e+00  0.000000e+00
     vertex  6.200000e+02  4.500000e+02  1.200000e+02
     vertex  6.200000e+02  8.500000e+02  1.200000e+02
   endloop
 endfacet
 facet normal  0.000000e+00 -1.000000e+00 -0.000000e+00
   outer loop
     vertex  8.100000e+02  0.000000e+00  1.200000e+02
     vertex  6.200000e+02  0.000000e+00  0.000000e+00
     vertex  8.100000e+02  0.000000e+00  0.000000e+00
   endloop
 endfacet
 facet normal -0.000000e+00 -1.000000e+00  0.000000e+00
   outer loop
     vertex  8.100000e+02  0.000000e+00  1.200000e+02
     vertex  6.200000e+02  0.000000e+00  1.200000e+02
     vertex  6.200000e+02  0.000000e+00  0.000000e+00
   endloop
 endfacet
 facet normal  0.000000e+00  0.000000e+00  1.000000e+00
   outer loop
     vertex  8.100000e+02  2.500000e+02  1.200000e+02
     vertex  6.200000e+02  2.500000e+02  1.200000e+02
     vertex  6.200000e+02  0.000000e+00  1.200000e+02
   endloop
 endfacet
 facet normal  0.000000e+00  0.000000e+00  1.000000e+00
   outer loop
     vertex  8.100000e+02  2.500000e+02  1.200000e+02
     vertex  6.200000e+02  0.000000e+00  1.200000e+02
     vertex  8.100000e+02  0.000000e+00  1.200000e+02
   endloop
 endfacet
 facet normal  0.000000e+00 -1.000000e+00 -0.000000e+00
   outer loop
     vertex  8.100000e+02  2.500000e+02  3.600000e+02
     vertex  6.200000e+02  2.500000e+02  1.200000e+02
     vertex  8.100000e+02  2.500000e+02  1.200000e+02
   endloop
 endfacet
 facet normal -0.000000e+00 -1.000000e+00  0.000000e+00
   outer loop
     vertex  8.100000e+02  2.500000e+02  3.600000e+02
     vertex  6.200000e+02  2.500000e+02  3.600000e+02
     vertex  6.200000e+02  2.500000e+02  1.200000e+02
   endloop
 endfacet
 facet normal  0.000000e+00  1.000000e+00  0.000000e+00
   outer loop
     vertex  8.100000e+02  4.500000e+02  3.600000e+02
     vertex  8.100000e+02  4.500000e+02  1.200000e+02
     vertex  6.200000e+02  4.500000e+02  1.200000e+02
   endloop
 endfacet
 facet normal  0.000000e+00  1.000000e+00  0.000000e+00
   outer loop
     vertex  8.100000e+02  4.500000e+02  3.600000e+02
     vertex  6.200000e+02  4.500000e+02  1.200000e+02
     vertex  6.200000e+02  4.500000e+02  3.600000e+02
   endloop
 endfacet
 facet normal -0.000000e+00  0.000000e+00 -1.000000e+00
   outer loop
     vertex  8.100000e+02  1.300000e+03  0.000000e+00
     vertex  6.200000e+02  0.000000e+00  0.000000e+00
     vertex  6.200000e+02  1.300000e+03  0.000000e+00
   endloop
 endfacet
 facet normal  0.000000e+00 -0.000000e+00 -1.000000e+00
   outer loop
     vertex  8.100000e+02  1.300000e+03  0.000000e+00
     vertex  8.100000e+02  0.000000e+00  0.000000e+00
     vertex  6.200000e+02  0.000000e+00  0.000000e+00
   endloop
 endfacet
 facet normal  0.000000e+00  0.000000e+00  1.000000e+00
   outer loop
     vertex  6.200000e+02  8.500000e+02  1.200000e+02
     vertex  6.200000e+02  4.500000e+02  1.200000e+02
     vertex  8.100000e+02  4.500000e+02  1.200000e+02
   endloop
 endfacet
 facet normal  0.000000e+00  0.000000e+00  1.000000e+00
   outer loop
     vertex  8.100000e+02  8.500000e+02  1.200000e+02
     vertex  6.200000e+02  8.500000e+02  1.200000e+02
     vertex  8.100000e+02  4.500000e+02  1.200000e+02
   endloop
 endfacet
 facet normal  0.000000e+00 -1.000000e+00 -0.000000e+00
   outer loop
     vertex  8.100000e+02  8.500000e+02  3.600000e+02
     vertex  6.200000e+02  8.500000e+02  1.200000e+02
     vertex  8.100000e+02  8.500000e+02  1.200000e+02
   endloop
 endfacet
 facet normal -0.000000e+00 -1.000000e+00  0.000000e+00
   outer loop
     vertex  8.100000e+02  8.500000e+02  3.600000e+02
     vertex  6.200000e+02  8.500000e+02  3.600000e+02
     vertex  6.200000e+02  8.500000e+02  1.200000e+02
   endloop
 endfacet
 facet normal  0.000000e+00  1.000000e+00  0.000000e+00
   outer loop
     vertex  8.100000e+02  1.050000e+03  3.600000e+02
     vertex  8.100000e+02  1.050000e+03  1.200000e+02
     vertex  6.200000e+02  1.050000e+03  1.200000e+02
   endloop
 endfacet
 facet normal  0.000000e+00  1.000000e+00  0.000000e+00
   outer loop
     vertex  8.100000e+02  1.050000e+03  3.600000e+02
     vertex  6.200000e+02  1.050000e+03  1.200000e+02
     vertex  6.200000e+02  1.050000e+03  3.600000e+02
   endloop
 endfacet
 facet normal  0.000000e+00  0.000000e+00  1.000000e+00
   outer loop
     vertex  8.100000e+02  1.300000e+03  1.200000e+02
     vertex  6.200000e+02  1.300000e+03  1.200000e+02
     vertex  6.200000e+02  1.050000e+03  1.200000e+02
   endloop
 endfacet
 facet normal  0.000000e+00  0.000000e+00  1.000000e+00
   outer loop
     vertex  8.100000e+02  1.300000e+03  1.200000e+02
     vertex  6.200000e+02  1.050000e+03  1.200000e+02
     vertex  8.100000e+02  1.050000e+03  1.200000e+02
   endloop
 endfacet
 facet normal  0.000000e+00  1.000000e+00  0.000000e+00
   outer loop
     vertex  8.100000e+02  1.300000e+03  1.200000e+02
     vertex  8.100000e+02  1.300000e+03  0.000000e+00
     vertex  6.200000e+02  1.300000e+03  0.000000e+00
   endloop
 endfacet
 facet normal  0.000000e+00  1.000000e+00  0.000000e+00
   outer loop
     vertex  8.100000e+02  1.300000e+03  1.200000e+02
     vertex  6.200000e+02  1.300000e+03  0.000000e+00
     vertex  6.200000e+02  1.300000e+03  1.200000e+02
   endloop
 endfacet
 facet normal  1.000000e+00 -0.000000e+00  0.000000e+00
   outer loop
     vertex  8.100000e+02  1.050000e+03  1.200000e+02
     vertex  8.100000e+02  1.300000e+03  0.000000e+00
     vertex  8.100000e+02  1.300000e+03  1.200000e+02
   endloop
 endfacet
 facet normal  1.000000e+00 -0.000000e+00  0.000000e+00
   outer loop
     vertex  8.100000e+02  8.500000e+02  1.200000e+02
     vertex  8.100000e+02  1.300000e+03  0.000000e+00
     vertex  8.100000e+02  1.050000e+03  1.200000e+02
   endloop
 endfacet
 facet normal  1.000000e+00  0.000000e+00  0.000000e+00
   outer loop
     vertex  8.100000e+02  1.050000e+03  3.600000e+02
     vertex  8.100000e+02  8.500000e+02  1.200000e+02
     vertex  8.100000e+02  1.050000e+03  1.200000e+02
   endloop
 endfacet
 facet normal  1.000000e+00  0.000000e+00  0.000000e+00
   outer loop
     vertex  8.100000e+02  1.120000e+03  4.700000e+02
     vertex  8.100000e+02  1.050000e+03  3.600000e+02
     vertex  8.100000e+02  1.120000e+03  3.600000e+02
   endloop
 endfacet
 facet normal  1.000000e+00  0.000000e+00  0.000000e+00
   outer loop
     vertex  8.100000e+02  8.500000e+02  3.600000e+02
     vertex  8.100000e+02  1.050000e+03  3.600000e+02
     vertex  8.100000e+02  1.120000e+03  4.700000e+02
   endloop
 endfacet
 facet normal  1.000000e+00 -0.000000e+00  0.000000e+00
   outer loop
     vertex  8.100000e+02  8.500000e+02  3.600000e+02
     vertex  8.100000e+02  8.500000e+02  1.200000e+02
     vertex  8.100000e+02  1.050000e+03  3.600000e+02
   endloop
 endfacet
 facet normal  1.000000e+00  0.000000e+00  0.000000e+00
   outer loop
     vertex  8.100000e+02  4.500000e+02  3.600000e+02
     vertex  8.100000e+02  8.500000e+02  3.600000e+02
     vertex  8.100000e+02  1.120000e+03  4.700000e+02
   endloop
 endfacet
 facet normal  1.000000e+00  0.000000e+00  0.000000e+00
   outer loop
     vertex  8.100000e+02  4.500000e+02  3.600000e+02
     vertex  8.100000e+02  2.500000e+02  1.200000e+02
     vertex  8.100000e+02  4.500000e+02  1.200000e+02
   endloop
 endfacet
 facet normal  1.000000e+00  0.000000e+00  0.000000e+00
   outer loop
     vertex  8.100000e+02  0.000000e+00  0.000000e+00
     vertex  8.100000e+02  4.500000e+02  1.200000e+02
     vertex  8.100000e+02  2.500000e+02  1.200000e+02
   endloop
 endfacet
 facet normal  1.000000e+00 -0.000000e+00  0.000000e+00
   outer loop
     vertex  8.100000e+02  2.500000e+02  3.600000e+02
     vertex  8.100000e+02  2.500000e+02  1.200000e+02
     vertex  8.100000e+02  4.500000e+02  3.600000e+02
   endloop
 endfacet
 facet normal  1.000000e+00 -0.000000e+00  0.000000e+00
   outer loop
     vertex  8.100000e+02  0.000000e+00  1.200000e+02
     vertex  8.100000e+02  0.000000e+00  0.000000e+00
     vertex  8.100000e+02  2.500000e+02  1.200000e+02
   endloop
 endfacet
 facet normal  1.000000e+00  0.000000e+00  0.000000e+00
   outer loop
     vertex  8.100000e+02  1.800000e+02  4.700000e+02
     vertex  8.100000e+02  1.800000e+02  3.600000e+02
     vertex  8.100000e+02  2.500000e+02  3.600000e+02
   endloop
 endfacet
 facet normal  1.000000e+00 -0.000000e+00  0.000000e+00
   outer loop
     vertex  8.100000e+02  1.800000e+02  4.700000e+02
     vertex  8.100000e+02  4.500000e+02  3.600000e+02
     vertex  8.100000e+02  1.120000e+03  4.700000e+02
   endloop
 endfacet
 facet normal  1.000000e+00  0.000000e+00  0.000000e+00
   outer loop
     vertex  8.100000e+02  1.800000e+02  4.700000e+02
     vertex  8.100000e+02  2.500000e+02  3.600000e+02
     vertex  8.100000e+02  4.500000e+02  3.600000e+02
   endloop
 endfacet
 facet normal  1.000000e+00  0.000000e+00  0.000000e+00
   outer loop
     vertex  8.100000e+02  0.000000e+00  0.000000e+00
     vertex  8.100000e+02  1.300000e+03  0.000000e+00
     vertex  8.100000e+02  8.500000e+02  1.200000e+02
   endloop
 endfacet
 facet normal  1.000000e+00  0.000000e+00  0.000000e+00
   outer loop
     vertex  8.100000e+02  0.000000e+00  0.000000e+00
     vertex  8.100000e+02  8.500000e+02  1.200000e+02
     vertex  8.100000e+02  4.500000e+02  1.200000e+02
   endloop
 endfacet
endsolid
