solid CATIA STL
  facet normal  0.000000e+000 -9.999999e-001  0.000000e+000
    outer loop
      vertex  9.699966e-002  0.000000e+000  2.575177e-004
      vertex -9.620252e-002  0.000000e+000 -1.241277e-002
      vertex  9.626707e-002  0.000000e+000 -1.190179e-002
    endloop
  endfacet
  facet normal  0.000000e+000 -1.000000e+000  0.000000e+000
    outer loop
      vertex  9.626707e-002  0.000000e+000 -1.190179e-002
      vertex -9.620252e-002  0.000000e+000 -1.241277e-002
      vertex -9.388819e-002  0.000000e+000 -2.437226e-002
    endloop
  endfacet
  facet normal  0.000000e+000 -1.000000e+000  0.000000e+000
    outer loop
      vertex  9.626707e-002  0.000000e+000 -1.190179e-002
      vertex -9.388819e-002  0.000000e+000 -2.437226e-002
      vertex  9.401628e-002  0.000000e+000 -2.387341e-002
    endloop
  endfacet
  facet normal  0.000000e+000 -1.000000e+000  0.000000e+000
    outer loop
      vertex  9.401628e-002  0.000000e+000 -2.387341e-002
      vertex -9.388819e-002  0.000000e+000 -2.437226e-002
      vertex -9.009320e-002  0.000000e+000 -3.594739e-002
    endloop
  endfacet
  facet normal  0.000000e+000 -1.000000e+000  0.000000e+000
    outer loop
      vertex  9.401628e-002  0.000000e+000 -2.387341e-002
      vertex -9.009320e-002  0.000000e+000 -3.594739e-002
      vertex  9.028281e-002  0.000000e+000 -3.546852e-002
    endloop
  endfacet
  facet normal  0.000000e+000 -9.999999e-001  0.000000e+000
    outer loop
      vertex  9.028281e-002  0.000000e+000 -3.546852e-002
      vertex -9.009320e-002  0.000000e+000 -3.594739e-002
      vertex -8.487739e-002  0.000000e+000 -4.695561e-002
    endloop
  endfacet
  facet normal  0.000000e+000 -9.999999e-001  0.000000e+000
    outer loop
      vertex  9.028281e-002  0.000000e+000 -3.546852e-002
      vertex -8.487739e-002  0.000000e+000 -4.695561e-002
      vertex  8.512551e-002  0.000000e+000 -4.650428e-002
    endloop
  endfacet
  facet normal  0.000000e+000 -1.000000e+000  0.000000e+000
    outer loop
      vertex  8.512551e-002  0.000000e+000 -4.650428e-002
      vertex -8.487739e-002  0.000000e+000 -4.695561e-002
      vertex -7.832301e-002  0.000000e+000 -5.722331e-002
    endloop
  endfacet
  facet normal  0.000000e+000 -1.000000e+000  0.000000e+000
    outer loop
      vertex  8.512551e-002  0.000000e+000 -4.650428e-002
      vertex -7.832301e-002  0.000000e+000 -5.722331e-002
      vertex  7.862575e-002  0.000000e+000 -5.680664e-002
    endloop
  endfacet
  facet normal  0.000000e+000 -1.000000e+000  0.000000e+000
    outer loop
      vertex  7.862575e-002  0.000000e+000 -5.680664e-002
      vertex -7.832301e-002  0.000000e+000 -5.722331e-002
      vertex -7.053342e-002  0.000000e+000 -6.658856e-002
    endloop
  endfacet
  facet normal  0.000000e+000 -1.000000e+000  0.000000e+000
    outer loop
      vertex  7.862575e-002  0.000000e+000 -5.680664e-002
      vertex -7.053342e-002  0.000000e+000 -6.658856e-002
      vertex  7.088600e-002  0.000000e+000 -6.621312e-002
    endloop
  endfacet
  facet normal  0.000000e+000 -1.000000e+000  0.000000e+000
    outer loop
      vertex  7.088600e-002  0.000000e+000 -6.621312e-002
      vertex -7.053342e-002  0.000000e+000 -6.658856e-002
      vertex -6.163149e-002  0.000000e+000 -7.490367e-002
    endloop
  endfacet
  facet normal  0.000000e+000 -1.000000e+000  0.000000e+000
    outer loop
      vertex  7.088600e-002  0.000000e+000 -6.621312e-002
      vertex -6.163149e-002  0.000000e+000 -7.490367e-002
      vertex  6.202833e-002  0.000000e+000 -7.457537e-002
    endloop
  endfacet
  facet normal  0.000000e+000 -1.000000e+000  0.000000e+000
    outer loop
      vertex  6.202833e-002  0.000000e+000 -7.457537e-002
      vertex -6.163149e-002  0.000000e+000 -7.490367e-002
      vertex -5.175759e-002  0.000000e+000 -8.203751e-002
    endloop
  endfacet
  facet normal  0.000000e+000 -1.000000e+000  0.000000e+000
    outer loop
      vertex  6.202833e-002  0.000000e+000 -7.457537e-002
      vertex -5.175759e-002  0.000000e+000 -8.203751e-002
      vertex  5.219245e-002  0.000000e+000 -8.176154e-002
    endloop
  endfacet
  facet normal  0.000000e+000 -1.000000e+000  0.000000e+000
    outer loop
      vertex  5.219245e-002  0.000000e+000 -8.176154e-002
      vertex -5.175759e-002  0.000000e+000 -8.203751e-002
      vertex -4.106744e-002  0.000000e+000 -8.787756e-002
    endloop
  endfacet
  facet normal  0.000000e+000 -1.000000e+000  0.000000e+000
    outer loop
      vertex  5.219245e-002  0.000000e+000 -8.176154e-002
      vertex -4.106744e-002  0.000000e+000 -8.787756e-002
      vertex  4.153346e-002  0.000000e+000 -8.765828e-002
    endloop
  endfacet
  facet normal  0.000000e+000 -1.000000e+000  0.000000e+000
    outer loop
      vertex  4.153346e-002  0.000000e+000 -8.765828e-002
      vertex -4.106744e-002  0.000000e+000 -8.787756e-002
      vertex -2.972963e-002  0.000000e+000 -9.233174e-002
    endloop
  endfacet
  facet normal  0.000000e+000 -1.000000e+000  0.000000e+000
    outer loop
      vertex  4.153346e-002  0.000000e+000 -8.765828e-002
      vertex -2.972963e-002  0.000000e+000 -9.233174e-002
      vertex  3.021946e-002  0.000000e+000 -9.217258e-002
    endloop
  endfacet
  facet normal  0.000000e+000 -1.000000e+000  0.000000e+000
    outer loop
      vertex  3.021946e-002  0.000000e+000 -9.217258e-002
      vertex -2.972963e-002  0.000000e+000 -9.233174e-002
      vertex -1.792297e-002  0.000000e+000 -9.532978e-002
    endloop
  endfacet
  facet normal  0.000000e+000 -9.999999e-001  0.000000e+000
    outer loop
      vertex  3.021946e-002  0.000000e+000 -9.217258e-002
      vertex -1.792297e-002  0.000000e+000 -9.532978e-002
      vertex  1.842888e-002  0.000000e+000 -9.523328e-002
    endloop
  endfacet
  facet normal  0.000000e+000 -1.000000e+000  0.000000e+000
    outer loop
      vertex  1.842888e-002  0.000000e+000 -9.523328e-002
      vertex -1.792297e-002  0.000000e+000 -9.532978e-002
      vertex -5.833650e-003  0.000000e+000 -9.682443e-002
    endloop
  endfacet
  facet normal  0.000000e+000 -1.000000e+000  0.000000e+000
    outer loop
      vertex  1.842888e-002  0.000000e+000 -9.523328e-002
      vertex -5.833650e-003  0.000000e+000 -9.682443e-002
      vertex  6.347669e-003  0.000000e+000 -9.679209e-002
    endloop
  endfacet
  facet normal  0.000000e+000 -1.000000e+000  0.000000e+000
    outer loop
      vertex -9.620252e-002  0.000000e+000 -1.241277e-002
      vertex  9.699966e-002  0.000000e+000  2.575177e-004
      vertex -9.699966e-002  0.000000e+000 -2.575177e-004
    endloop
  endfacet
  facet normal  0.000000e+000 -1.000000e+000  0.000000e+000
    outer loop
      vertex -9.699966e-002  0.000000e+000 -2.575177e-004
      vertex  9.699966e-002  0.000000e+000  2.575177e-004
      vertex  9.620252e-002  0.000000e+000  1.241277e-002
    endloop
  endfacet
  facet normal  0.000000e+000 -9.999999e-001  0.000000e+000
    outer loop
      vertex -9.699966e-002  0.000000e+000 -2.575177e-004
      vertex  9.620252e-002  0.000000e+000  1.241277e-002
      vertex -9.626707e-002  0.000000e+000  1.190179e-002
    endloop
  endfacet
  facet normal  0.000000e+000 -1.000000e+000  0.000000e+000
    outer loop
      vertex -9.626707e-002  0.000000e+000  1.190179e-002
      vertex  9.620252e-002  0.000000e+000  1.241277e-002
      vertex  9.388819e-002  0.000000e+000  2.437226e-002
    endloop
  endfacet
  facet normal  0.000000e+000 -1.000000e+000  0.000000e+000
    outer loop
      vertex -9.626707e-002  0.000000e+000  1.190179e-002
      vertex  9.388819e-002  0.000000e+000  2.437226e-002
      vertex -9.401628e-002  0.000000e+000  2.387341e-002
    endloop
  endfacet
  facet normal  0.000000e+000 -1.000000e+000  0.000000e+000
    outer loop
      vertex -9.401628e-002  0.000000e+000  2.387341e-002
      vertex  9.388819e-002  0.000000e+000  2.437226e-002
      vertex  9.009320e-002  0.000000e+000  3.594739e-002
    endloop
  endfacet
  facet normal  0.000000e+000 -1.000000e+000  0.000000e+000
    outer loop
      vertex -9.401628e-002  0.000000e+000  2.387341e-002
      vertex  9.009320e-002  0.000000e+000  3.594739e-002
      vertex -9.028281e-002  0.000000e+000  3.546852e-002
    endloop
  endfacet
  facet normal  0.000000e+000 -9.999999e-001  0.000000e+000
    outer loop
      vertex -9.028281e-002  0.000000e+000  3.546852e-002
      vertex  9.009320e-002  0.000000e+000  3.594739e-002
      vertex  8.487739e-002  0.000000e+000  4.695561e-002
    endloop
  endfacet
  facet normal  0.000000e+000 -9.999999e-001  0.000000e+000
    outer loop
      vertex -9.028281e-002  0.000000e+000  3.546852e-002
      vertex  8.487739e-002  0.000000e+000  4.695561e-002
      vertex -8.512551e-002  0.000000e+000  4.650428e-002
    endloop
  endfacet
  facet normal  0.000000e+000 -1.000000e+000  0.000000e+000
    outer loop
      vertex -8.512551e-002  0.000000e+000  4.650428e-002
      vertex  8.487739e-002  0.000000e+000  4.695561e-002
      vertex  7.832301e-002  0.000000e+000  5.722331e-002
    endloop
  endfacet
  facet normal  0.000000e+000 -1.000000e+000  0.000000e+000
    outer loop
      vertex -8.512551e-002  0.000000e+000  4.650428e-002
      vertex  7.832301e-002  0.000000e+000  5.722331e-002
      vertex -7.862575e-002  0.000000e+000  5.680664e-002
    endloop
  endfacet
  facet normal  0.000000e+000 -1.000000e+000  0.000000e+000
    outer loop
      vertex -7.862575e-002  0.000000e+000  5.680664e-002
      vertex  7.832301e-002  0.000000e+000  5.722331e-002
      vertex  7.053342e-002  0.000000e+000  6.658856e-002
    endloop
  endfacet
  facet normal  0.000000e+000 -1.000000e+000  0.000000e+000
    outer loop
      vertex -7.862575e-002  0.000000e+000  5.680664e-002
      vertex  7.053342e-002  0.000000e+000  6.658856e-002
      vertex -7.088600e-002  0.000000e+000  6.621312e-002
    endloop
  endfacet
  facet normal  0.000000e+000 -1.000000e+000  0.000000e+000
    outer loop
      vertex -7.088600e-002  0.000000e+000  6.621312e-002
      vertex  7.053342e-002  0.000000e+000  6.658856e-002
      vertex  6.163149e-002  0.000000e+000  7.490367e-002
    endloop
  endfacet
  facet normal  0.000000e+000 -1.000000e+000  0.000000e+000
    outer loop
      vertex -7.088600e-002  0.000000e+000  6.621312e-002
      vertex  6.163149e-002  0.000000e+000  7.490367e-002
      vertex -6.202833e-002  0.000000e+000  7.457537e-002
    endloop
  endfacet
  facet normal  0.000000e+000 -1.000000e+000  0.000000e+000
    outer loop
      vertex -6.202833e-002  0.000000e+000  7.457537e-002
      vertex  6.163149e-002  0.000000e+000  7.490367e-002
      vertex  5.175759e-002  0.000000e+000  8.203751e-002
    endloop
  endfacet
  facet normal  0.000000e+000 -1.000000e+000  0.000000e+000
    outer loop
      vertex -6.202833e-002  0.000000e+000  7.457537e-002
      vertex  5.175759e-002  0.000000e+000  8.203751e-002
      vertex -5.219245e-002  0.000000e+000  8.176154e-002
    endloop
  endfacet
  facet normal  0.000000e+000 -1.000000e+000  0.000000e+000
    outer loop
      vertex -5.219245e-002  0.000000e+000  8.176154e-002
      vertex  5.175759e-002  0.000000e+000  8.203751e-002
      vertex  4.106744e-002  0.000000e+000  8.787756e-002
    endloop
  endfacet
  facet normal  0.000000e+000 -1.000000e+000  0.000000e+000
    outer loop
      vertex -5.219245e-002  0.000000e+000  8.176154e-002
      vertex  4.106744e-002  0.000000e+000  8.787756e-002
      vertex -4.153346e-002  0.000000e+000  8.765828e-002
    endloop
  endfacet
  facet normal  0.000000e+000 -1.000000e+000  0.000000e+000
    outer loop
      vertex -4.153346e-002  0.000000e+000  8.765828e-002
      vertex  4.106744e-002  0.000000e+000  8.787756e-002
      vertex  2.972963e-002  0.000000e+000  9.233174e-002
    endloop
  endfacet
  facet normal  0.000000e+000 -1.000000e+000  0.000000e+000
    outer loop
      vertex -4.153346e-002  0.000000e+000  8.765828e-002
      vertex  2.972963e-002  0.000000e+000  9.233174e-002
      vertex -3.021946e-002  0.000000e+000  9.217258e-002
    endloop
  endfacet
  facet normal  0.000000e+000 -1.000000e+000  0.000000e+000
    outer loop
      vertex -3.021946e-002  0.000000e+000  9.217258e-002
      vertex  2.972963e-002  0.000000e+000  9.233174e-002
      vertex  1.792297e-002  0.000000e+000  9.532978e-002
    endloop
  endfacet
  facet normal  0.000000e+000 -9.999999e-001  0.000000e+000
    outer loop
      vertex -3.021946e-002  0.000000e+000  9.217258e-002
      vertex  1.792297e-002  0.000000e+000  9.532978e-002
      vertex -1.842888e-002  0.000000e+000  9.523328e-002
    endloop
  endfacet
  facet normal  0.000000e+000 -1.000000e+000  0.000000e+000
    outer loop
      vertex -1.842888e-002  0.000000e+000  9.523328e-002
      vertex  1.792297e-002  0.000000e+000  9.532978e-002
      vertex  5.833650e-003  0.000000e+000  9.682443e-002
    endloop
  endfacet
  facet normal  0.000000e+000 -1.000000e+000  0.000000e+000
    outer loop
      vertex -1.842888e-002  0.000000e+000  9.523328e-002
      vertex  5.833650e-003  0.000000e+000  9.682443e-002
      vertex -6.347669e-003  0.000000e+000  9.679209e-002
    endloop
  endfacet
  facet normal  0.000000e+000  1.000000e+000  0.000000e+000
    outer loop
      vertex  6.347669e-003  3.480000e-001 -9.679209e-002
      vertex -5.833650e-003  3.480000e-001 -9.682443e-002
      vertex  1.842888e-002  3.480000e-001 -9.523328e-002
    endloop
  endfacet
  facet normal  0.000000e+000  1.000000e+000  0.000000e+000
    outer loop
      vertex  1.842888e-002  3.480000e-001 -9.523328e-002
      vertex -5.833650e-003  3.480000e-001 -9.682443e-002
      vertex -1.792297e-002  3.480000e-001 -9.532978e-002
    endloop
  endfacet
  facet normal  0.000000e+000  9.999999e-001  0.000000e+000
    outer loop
      vertex  1.842888e-002  3.480000e-001 -9.523328e-002
      vertex -1.792297e-002  3.480000e-001 -9.532978e-002
      vertex  3.021946e-002  3.480000e-001 -9.217258e-002
    endloop
  endfacet
  facet normal  0.000000e+000  1.000000e+000  0.000000e+000
    outer loop
      vertex  3.021946e-002  3.480000e-001 -9.217258e-002
      vertex -1.792297e-002  3.480000e-001 -9.532978e-002
      vertex -2.972963e-002  3.480000e-001 -9.233174e-002
    endloop
  endfacet
  facet normal  0.000000e+000  1.000000e+000  0.000000e+000
    outer loop
      vertex  3.021946e-002  3.480000e-001 -9.217258e-002
      vertex -2.972963e-002  3.480000e-001 -9.233174e-002
      vertex  4.153346e-002  3.480000e-001 -8.765828e-002
    endloop
  endfacet
  facet normal  0.000000e+000  1.000000e+000  0.000000e+000
    outer loop
      vertex  4.153346e-002  3.480000e-001 -8.765828e-002
      vertex -2.972963e-002  3.480000e-001 -9.233174e-002
      vertex -4.106744e-002  3.480000e-001 -8.787756e-002
    endloop
  endfacet
  facet normal  0.000000e+000  1.000000e+000  0.000000e+000
    outer loop
      vertex  4.153346e-002  3.480000e-001 -8.765828e-002
      vertex -4.106744e-002  3.480000e-001 -8.787756e-002
      vertex  5.219245e-002  3.480000e-001 -8.176154e-002
    endloop
  endfacet
  facet normal  0.000000e+000  1.000000e+000  0.000000e+000
    outer loop
      vertex  5.219245e-002  3.480000e-001 -8.176154e-002
      vertex -4.106744e-002  3.480000e-001 -8.787756e-002
      vertex -5.175759e-002  3.480000e-001 -8.203751e-002
    endloop
  endfacet
  facet normal  0.000000e+000  1.000000e+000  0.000000e+000
    outer loop
      vertex  5.219245e-002  3.480000e-001 -8.176154e-002
      vertex -5.175759e-002  3.480000e-001 -8.203751e-002
      vertex  6.202833e-002  3.480000e-001 -7.457537e-002
    endloop
  endfacet
  facet normal  0.000000e+000  1.000000e+000  0.000000e+000
    outer loop
      vertex  6.202833e-002  3.480000e-001 -7.457537e-002
      vertex -5.175759e-002  3.480000e-001 -8.203751e-002
      vertex -6.163149e-002  3.480000e-001 -7.490367e-002
    endloop
  endfacet
  facet normal  0.000000e+000  1.000000e+000  0.000000e+000
    outer loop
      vertex  6.202833e-002  3.480000e-001 -7.457537e-002
      vertex -6.163149e-002  3.480000e-001 -7.490367e-002
      vertex  7.088600e-002  3.480000e-001 -6.621312e-002
    endloop
  endfacet
  facet normal  0.000000e+000  1.000000e+000  0.000000e+000
    outer loop
      vertex  7.088600e-002  3.480000e-001 -6.621312e-002
      vertex -6.163149e-002  3.480000e-001 -7.490367e-002
      vertex -7.053342e-002  3.480000e-001 -6.658856e-002
    endloop
  endfacet
  facet normal  0.000000e+000  1.000000e+000  0.000000e+000
    outer loop
      vertex  7.088600e-002  3.480000e-001 -6.621312e-002
      vertex -7.053342e-002  3.480000e-001 -6.658856e-002
      vertex  7.862575e-002  3.480000e-001 -5.680664e-002
    endloop
  endfacet
  facet normal  0.000000e+000  1.000000e+000  0.000000e+000
    outer loop
      vertex  7.862575e-002  3.480000e-001 -5.680664e-002
      vertex -7.053342e-002  3.480000e-001 -6.658856e-002
      vertex -7.832301e-002  3.480000e-001 -5.722331e-002
    endloop
  endfacet
  facet normal  0.000000e+000  1.000000e+000  0.000000e+000
    outer loop
      vertex  7.862575e-002  3.480000e-001 -5.680664e-002
      vertex -7.832301e-002  3.480000e-001 -5.722331e-002
      vertex  8.512551e-002  3.480000e-001 -4.650428e-002
    endloop
  endfacet
  facet normal  0.000000e+000  1.000000e+000  0.000000e+000
    outer loop
      vertex  8.512551e-002  3.480000e-001 -4.650428e-002
      vertex -7.832301e-002  3.480000e-001 -5.722331e-002
      vertex -8.487739e-002  3.480000e-001 -4.695561e-002
    endloop
  endfacet
  facet normal  0.000000e+000  9.999999e-001  0.000000e+000
    outer loop
      vertex  8.512551e-002  3.480000e-001 -4.650428e-002
      vertex -8.487739e-002  3.480000e-001 -4.695561e-002
      vertex  9.028281e-002  3.480000e-001 -3.546852e-002
    endloop
  endfacet
  facet normal  0.000000e+000  9.999999e-001  0.000000e+000
    outer loop
      vertex  9.028281e-002  3.480000e-001 -3.546852e-002
      vertex -8.487739e-002  3.480000e-001 -4.695561e-002
      vertex -9.009320e-002  3.480000e-001 -3.594739e-002
    endloop
  endfacet
  facet normal  0.000000e+000  1.000000e+000  0.000000e+000
    outer loop
      vertex  9.028281e-002  3.480000e-001 -3.546852e-002
      vertex -9.009320e-002  3.480000e-001 -3.594739e-002
      vertex  9.401628e-002  3.480000e-001 -2.387341e-002
    endloop
  endfacet
  facet normal  0.000000e+000  1.000000e+000  0.000000e+000
    outer loop
      vertex  9.401628e-002  3.480000e-001 -2.387341e-002
      vertex -9.009320e-002  3.480000e-001 -3.594739e-002
      vertex -9.388819e-002  3.480000e-001 -2.437226e-002
    endloop
  endfacet
  facet normal  0.000000e+000  1.000000e+000  0.000000e+000
    outer loop
      vertex  9.401628e-002  3.480000e-001 -2.387341e-002
      vertex -9.388819e-002  3.480000e-001 -2.437226e-002
      vertex  9.626707e-002  3.480000e-001 -1.190179e-002
    endloop
  endfacet
  facet normal  0.000000e+000  1.000000e+000  0.000000e+000
    outer loop
      vertex  9.626707e-002  3.480000e-001 -1.190179e-002
      vertex -9.388819e-002  3.480000e-001 -2.437226e-002
      vertex -9.620252e-002  3.480000e-001 -1.241277e-002
    endloop
  endfacet
  facet normal  0.000000e+000  9.999999e-001  0.000000e+000
    outer loop
      vertex  9.626707e-002  3.480000e-001 -1.190179e-002
      vertex -9.620252e-002  3.480000e-001 -1.241277e-002
      vertex  9.699966e-002  3.480000e-001  2.575177e-004
    endloop
  endfacet
  facet normal  0.000000e+000  1.000000e+000  0.000000e+000
    outer loop
      vertex  9.699966e-002  3.480000e-001  2.575177e-004
      vertex -9.620252e-002  3.480000e-001 -1.241277e-002
      vertex -9.699966e-002  3.480000e-001 -2.575177e-004
    endloop
  endfacet
  facet normal  0.000000e+000  1.000000e+000  0.000000e+000
    outer loop
      vertex  9.699966e-002  3.480000e-001  2.575177e-004
      vertex -9.699966e-002  3.480000e-001 -2.575177e-004
      vertex  9.620252e-002  3.480000e-001  1.241277e-002
    endloop
  endfacet
  facet normal  0.000000e+000  9.999999e-001  0.000000e+000
    outer loop
      vertex  9.620252e-002  3.480000e-001  1.241277e-002
      vertex -9.699966e-002  3.480000e-001 -2.575177e-004
      vertex -9.626707e-002  3.480000e-001  1.190179e-002
    endloop
  endfacet
  facet normal  0.000000e+000  1.000000e+000  0.000000e+000
    outer loop
      vertex  9.620252e-002  3.480000e-001  1.241277e-002
      vertex -9.626707e-002  3.480000e-001  1.190179e-002
      vertex  9.388819e-002  3.480000e-001  2.437226e-002
    endloop
  endfacet
  facet normal  0.000000e+000  1.000000e+000  0.000000e+000
    outer loop
      vertex  9.388819e-002  3.480000e-001  2.437226e-002
      vertex -9.626707e-002  3.480000e-001  1.190179e-002
      vertex -9.401628e-002  3.480000e-001  2.387341e-002
    endloop
  endfacet
  facet normal  0.000000e+000  1.000000e+000  0.000000e+000
    outer loop
      vertex  9.388819e-002  3.480000e-001  2.437226e-002
      vertex -9.401628e-002  3.480000e-001  2.387341e-002
      vertex  9.009320e-002  3.480000e-001  3.594739e-002
    endloop
  endfacet
  facet normal  0.000000e+000  1.000000e+000  0.000000e+000
    outer loop
      vertex  9.009320e-002  3.480000e-001  3.594739e-002
      vertex -9.401628e-002  3.480000e-001  2.387341e-002
      vertex -9.028281e-002  3.480000e-001  3.546852e-002
    endloop
  endfacet
  facet normal  0.000000e+000  9.999999e-001  0.000000e+000
    outer loop
      vertex  9.009320e-002  3.480000e-001  3.594739e-002
      vertex -9.028281e-002  3.480000e-001  3.546852e-002
      vertex  8.487739e-002  3.480000e-001  4.695561e-002
    endloop
  endfacet
  facet normal  0.000000e+000  9.999999e-001  0.000000e+000
    outer loop
      vertex  8.487739e-002  3.480000e-001  4.695561e-002
      vertex -9.028281e-002  3.480000e-001  3.546852e-002
      vertex -8.512551e-002  3.480000e-001  4.650428e-002
    endloop
  endfacet
  facet normal  0.000000e+000  1.000000e+000  0.000000e+000
    outer loop
      vertex  8.487739e-002  3.480000e-001  4.695561e-002
      vertex -8.512551e-002  3.480000e-001  4.650428e-002
      vertex  7.832301e-002  3.480000e-001  5.722331e-002
    endloop
  endfacet
  facet normal  0.000000e+000  1.000000e+000  0.000000e+000
    outer loop
      vertex  7.832301e-002  3.480000e-001  5.722331e-002
      vertex -8.512551e-002  3.480000e-001  4.650428e-002
      vertex -7.862575e-002  3.480000e-001  5.680664e-002
    endloop
  endfacet
  facet normal  0.000000e+000  1.000000e+000  0.000000e+000
    outer loop
      vertex  7.832301e-002  3.480000e-001  5.722331e-002
      vertex -7.862575e-002  3.480000e-001  5.680664e-002
      vertex  7.053342e-002  3.480000e-001  6.658856e-002
    endloop
  endfacet
  facet normal  0.000000e+000  1.000000e+000  0.000000e+000
    outer loop
      vertex  7.053342e-002  3.480000e-001  6.658856e-002
      vertex -7.862575e-002  3.480000e-001  5.680664e-002
      vertex -7.088600e-002  3.480000e-001  6.621312e-002
    endloop
  endfacet
  facet normal  0.000000e+000  1.000000e+000  0.000000e+000
    outer loop
      vertex  7.053342e-002  3.480000e-001  6.658856e-002
      vertex -7.088600e-002  3.480000e-001  6.621312e-002
      vertex  6.163149e-002  3.480000e-001  7.490367e-002
    endloop
  endfacet
  facet normal  0.000000e+000  1.000000e+000  0.000000e+000
    outer loop
      vertex  6.163149e-002  3.480000e-001  7.490367e-002
      vertex -7.088600e-002  3.480000e-001  6.621312e-002
      vertex -6.202833e-002  3.480000e-001  7.457537e-002
    endloop
  endfacet
  facet normal  0.000000e+000  1.000000e+000  0.000000e+000
    outer loop
      vertex  6.163149e-002  3.480000e-001  7.490367e-002
      vertex -6.202833e-002  3.480000e-001  7.457537e-002
      vertex  5.175759e-002  3.480000e-001  8.203751e-002
    endloop
  endfacet
  facet normal  0.000000e+000  1.000000e+000  0.000000e+000
    outer loop
      vertex  5.175759e-002  3.480000e-001  8.203751e-002
      vertex -6.202833e-002  3.480000e-001  7.457537e-002
      vertex -5.219245e-002  3.480000e-001  8.176154e-002
    endloop
  endfacet
  facet normal  0.000000e+000  1.000000e+000  0.000000e+000
    outer loop
      vertex  5.175759e-002  3.480000e-001  8.203751e-002
      vertex -5.219245e-002  3.480000e-001  8.176154e-002
      vertex  4.106744e-002  3.480000e-001  8.787756e-002
    endloop
  endfacet
  facet normal  0.000000e+000  1.000000e+000  0.000000e+000
    outer loop
      vertex  4.106744e-002  3.480000e-001  8.787756e-002
      vertex -5.219245e-002  3.480000e-001  8.176154e-002
      vertex -4.153346e-002  3.480000e-001  8.765828e-002
    endloop
  endfacet
  facet normal  0.000000e+000  1.000000e+000  0.000000e+000
    outer loop
      vertex  4.106744e-002  3.480000e-001  8.787756e-002
      vertex -4.153346e-002  3.480000e-001  8.765828e-002
      vertex  2.972963e-002  3.480000e-001  9.233174e-002
    endloop
  endfacet
  facet normal  0.000000e+000  1.000000e+000  0.000000e+000
    outer loop
      vertex  2.972963e-002  3.480000e-001  9.233174e-002
      vertex -4.153346e-002  3.480000e-001  8.765828e-002
      vertex -3.021946e-002  3.480000e-001  9.217258e-002
    endloop
  endfacet
  facet normal  0.000000e+000  1.000000e+000  0.000000e+000
    outer loop
      vertex  2.972963e-002  3.480000e-001  9.233174e-002
      vertex -3.021946e-002  3.480000e-001  9.217258e-002
      vertex  1.792297e-002  3.480000e-001  9.532978e-002
    endloop
  endfacet
  facet normal  0.000000e+000  9.999999e-001  0.000000e+000
    outer loop
      vertex  1.792297e-002  3.480000e-001  9.532978e-002
      vertex -3.021946e-002  3.480000e-001  9.217258e-002
      vertex -1.842888e-002  3.480000e-001  9.523328e-002
    endloop
  endfacet
  facet normal  0.000000e+000  1.000000e+000  0.000000e+000
    outer loop
      vertex  1.792297e-002  3.480000e-001  9.532978e-002
      vertex -1.842888e-002  3.480000e-001  9.523328e-002
      vertex  5.833650e-003  3.480000e-001  9.682443e-002
    endloop
  endfacet
  facet normal  0.000000e+000  1.000000e+000  0.000000e+000
    outer loop
      vertex  5.833650e-003  3.480000e-001  9.682443e-002
      vertex -1.842888e-002  3.480000e-001  9.523328e-002
      vertex -6.347669e-003  3.480000e-001  9.679209e-002
    endloop
  endfacet
  facet normal -9.059543e-001  0.000000e+000  4.233754e-001
    outer loop
      vertex -8.512551e-002  0.000000e+000  4.650428e-002
      vertex -8.512551e-002  3.480000e-001  4.650428e-002
      vertex -9.028281e-002  0.000000e+000  3.546852e-002
    endloop
  endfacet
  facet normal -9.059543e-001  0.000000e+000  4.233754e-001
    outer loop
      vertex -9.028281e-002  0.000000e+000  3.546852e-002
      vertex -8.512551e-002  3.480000e-001  4.650428e-002
      vertex -9.028281e-002  3.480000e-001  3.546852e-002
    endloop
  endfacet
  facet normal -9.518734e-001  0.000000e+000  3.064914e-001
    outer loop
      vertex -9.028281e-002  0.000000e+000  3.546852e-002
      vertex -9.028281e-002  3.480000e-001  3.546852e-002
      vertex -9.401628e-002  0.000000e+000  2.387341e-002
    endloop
  endfacet
  facet normal -9.518734e-001  0.000000e+000  3.064914e-001
    outer loop
      vertex -9.401628e-002  0.000000e+000  2.387341e-002
      vertex -9.028281e-002  3.480000e-001  3.546852e-002
      vertex -9.401628e-002  3.480000e-001  2.387341e-002
    endloop
  endfacet
  facet normal -9.827814e-001  0.000000e+000  1.847723e-001
    outer loop
      vertex -9.401628e-002  0.000000e+000  2.387341e-002
      vertex -9.401628e-002  3.480000e-001  2.387341e-002
      vertex -9.626707e-002  0.000000e+000  1.190179e-002
    endloop
  endfacet
  facet normal -9.827814e-001  0.000000e+000  1.847723e-001
    outer loop
      vertex -9.626707e-002  0.000000e+000  1.190179e-002
      vertex -9.401628e-002  3.480000e-001  2.387341e-002
      vertex -9.626707e-002  3.480000e-001  1.190179e-002
    endloop
  endfacet
  facet normal -9.981899e-001  0.000000e+000  6.014084e-002
    outer loop
      vertex -9.626707e-002  0.000000e+000  1.190179e-002
      vertex -9.626707e-002  3.480000e-001  1.190179e-002
      vertex -9.699966e-002  0.000000e+000 -2.575177e-004
    endloop
  endfacet
  facet normal -9.981899e-001  0.000000e+000  6.014084e-002
    outer loop
      vertex -9.699966e-002  0.000000e+000 -2.575177e-004
      vertex -9.626707e-002  3.480000e-001  1.190179e-002
      vertex -9.699966e-002  3.480000e-001 -2.575177e-004
    endloop
  endfacet
  facet normal -9.978565e-001  -0.000000e+000 -6.543949e-002
    outer loop
      vertex -9.699966e-002  0.000000e+000 -2.575177e-004
      vertex -9.699966e-002  3.480000e-001 -2.575177e-004
      vertex -9.620252e-002  0.000000e+000 -1.241277e-002
    endloop
  endfacet
  facet normal -9.978565e-001  0.000000e+000 -6.543949e-002
    outer loop
      vertex -9.620252e-002  0.000000e+000 -1.241277e-002
      vertex -9.699966e-002  3.480000e-001 -2.575177e-004
      vertex -9.620252e-002  3.480000e-001 -1.241277e-002
    endloop
  endfacet
  facet normal -9.817862e-001  -0.000000e+000 -1.899889e-001
    outer loop
      vertex -9.620252e-002  0.000000e+000 -1.241277e-002
      vertex -9.620252e-002  3.480000e-001 -1.241277e-002
      vertex -9.388819e-002  0.000000e+000 -2.437226e-002
    endloop
  endfacet
  facet normal -9.817862e-001  0.000000e+000 -1.899889e-001
    outer loop
      vertex -9.388819e-002  0.000000e+000 -2.437226e-002
      vertex -9.620252e-002  3.480000e-001 -1.241277e-002
      vertex -9.388819e-002  3.480000e-001 -2.437226e-002
    endloop
  endfacet
  facet normal -9.502328e-001  -0.000000e+000 -3.115407e-001
    outer loop
      vertex -9.388819e-002  0.000000e+000 -2.437226e-002
      vertex -9.388819e-002  3.480000e-001 -2.437226e-002
      vertex -9.009320e-002  0.000000e+000 -3.594739e-002
    endloop
  endfacet
  facet normal -9.502328e-001  0.000000e+000 -3.115407e-001
    outer loop
      vertex -9.009320e-002  0.000000e+000 -3.594739e-002
      vertex -9.388819e-002  3.480000e-001 -2.437226e-002
      vertex -9.009320e-002  3.480000e-001 -3.594739e-002
    endloop
  endfacet
  facet normal -9.036935e-001  -0.000000e+000 -4.281799e-001
    outer loop
      vertex -9.009320e-002  0.000000e+000 -3.594739e-002
      vertex -9.009320e-002  3.480000e-001 -3.594739e-002
      vertex -8.487739e-002  0.000000e+000 -4.695561e-002
    endloop
  endfacet
  facet normal -9.036935e-001  0.000000e+000 -4.281799e-001
    outer loop
      vertex -8.487739e-002  0.000000e+000 -4.695561e-002
      vertex -9.009320e-002  3.480000e-001 -3.594739e-002
      vertex -8.487739e-002  3.480000e-001 -4.695561e-002
    endloop
  endfacet
  facet normal -8.429024e-001  -0.000000e+000 -5.380664e-001
    outer loop
      vertex -8.487739e-002  0.000000e+000 -4.695561e-002
      vertex -8.487739e-002  3.480000e-001 -4.695561e-002
      vertex -7.832301e-002  0.000000e+000 -5.722331e-002
    endloop
  endfacet
  facet normal -8.429024e-001  0.000000e+000 -5.380664e-001
    outer loop
      vertex -7.832301e-002  0.000000e+000 -5.722331e-002
      vertex -8.487739e-002  3.480000e-001 -4.695561e-002
      vertex -7.832301e-002  3.480000e-001 -5.722331e-002
    endloop
  endfacet
  facet normal -7.688182e-001  -0.000000e+000 -6.394674e-001
    outer loop
      vertex -7.832301e-002  0.000000e+000 -5.722331e-002
      vertex -7.832301e-002  3.480000e-001 -5.722331e-002
      vertex -7.053342e-002  0.000000e+000 -6.658856e-002
    endloop
  endfacet
  facet normal -7.688182e-001  0.000000e+000 -6.394674e-001
    outer loop
      vertex -7.053342e-002  0.000000e+000 -6.658856e-002
      vertex -7.832301e-002  3.480000e-001 -5.722331e-002
      vertex -7.053342e-002  3.480000e-001 -6.658856e-002
    endloop
  endfacet
  facet normal -6.826096e-001  -0.000000e+000 -7.307831e-001
    outer loop
      vertex -7.053342e-002  0.000000e+000 -6.658856e-002
      vertex -7.053342e-002  3.480000e-001 -6.658856e-002
      vertex -6.163149e-002  0.000000e+000 -7.490367e-002
    endloop
  endfacet
  facet normal -6.826096e-001  0.000000e+000 -7.307831e-001
    outer loop
      vertex -6.163149e-002  0.000000e+000 -7.490367e-002
      vertex -7.053342e-002  3.480000e-001 -6.658856e-002
      vertex -6.163149e-002  3.480000e-001 -7.490367e-002
    endloop
  endfacet
  facet normal -5.856353e-001  -0.000000e+000 -8.105747e-001
    outer loop
      vertex -6.163149e-002  0.000000e+000 -7.490367e-002
      vertex -6.163149e-002  3.480000e-001 -7.490367e-002
      vertex -5.175759e-002  0.000000e+000 -8.203751e-002
    endloop
  endfacet
  facet normal -5.856353e-001  0.000000e+000 -8.105747e-001
    outer loop
      vertex -5.175759e-002  0.000000e+000 -8.203751e-002
      vertex -6.163149e-002  3.480000e-001 -7.490367e-002
      vertex -5.175759e-002  3.480000e-001 -8.203751e-002
    endloop
  endfacet
  facet normal -4.794256e-001  -0.000000e+000 -8.775825e-001
    outer loop
      vertex -5.175759e-002  0.000000e+000 -8.203751e-002
      vertex -5.175759e-002  3.480000e-001 -8.203751e-002
      vertex -4.106744e-002  0.000000e+000 -8.787756e-002
    endloop
  endfacet
  facet normal -4.794256e-001  0.000000e+000 -8.775825e-001
    outer loop
      vertex -4.106744e-002  0.000000e+000 -8.787756e-002
      vertex -5.175759e-002  3.480000e-001 -8.203751e-002
      vertex -4.106744e-002  3.480000e-001 -8.787756e-002
    endloop
  endfacet
  facet normal -3.656546e-001  -0.000000e+000 -9.307505e-001
    outer loop
      vertex -4.106744e-002  0.000000e+000 -8.787756e-002
      vertex -4.106744e-002  3.480000e-001 -8.787756e-002
      vertex -2.972963e-002  0.000000e+000 -9.233174e-002
    endloop
  endfacet
  facet normal -3.656546e-001  0.000000e+000 -9.307505e-001
    outer loop
      vertex -2.972963e-002  0.000000e+000 -9.233174e-002
      vertex -4.106744e-002  3.480000e-001 -8.787756e-002
      vertex -2.972963e-002  3.480000e-001 -9.233174e-002
    endloop
  endfacet
  facet normal -2.461175e-001  -0.000000e+000 -9.692399e-001
    outer loop
      vertex -2.972963e-002  0.000000e+000 -9.233174e-002
      vertex -2.972963e-002  3.480000e-001 -9.233174e-002
      vertex -1.792297e-002  0.000000e+000 -9.532978e-002
    endloop
  endfacet
  facet normal -2.461175e-001  0.000000e+000 -9.692399e-001
    outer loop
      vertex -1.792297e-002  0.000000e+000 -9.532978e-002
      vertex -2.972963e-002  3.480000e-001 -9.233174e-002
      vertex -1.792297e-002  3.480000e-001 -9.532978e-002
    endloop
  endfacet
  facet normal -1.226993e-001  -0.000000e+000 -9.924439e-001
    outer loop
      vertex -1.792297e-002  0.000000e+000 -9.532978e-002
      vertex -1.792297e-002  3.480000e-001 -9.532978e-002
      vertex -5.833650e-003  0.000000e+000 -9.682443e-002
    endloop
  endfacet
  facet normal -1.226993e-001  0.000000e+000 -9.924439e-001
    outer loop
      vertex -5.833650e-003  0.000000e+000 -9.682443e-002
      vertex -1.792297e-002  3.480000e-001 -9.532978e-002
      vertex -5.833650e-003  3.480000e-001 -9.682443e-002
    endloop
  endfacet
  facet normal  2.654958e-003  0.000000e+000 -9.999964e-001
    outer loop
      vertex -5.833650e-003  0.000000e+000 -9.682443e-002
      vertex -5.833650e-003  3.480000e-001 -9.682443e-002
      vertex  6.347669e-003  0.000000e+000 -9.679209e-002
    endloop
  endfacet
  facet normal  2.654958e-003  0.000000e+000 -9.999964e-001
    outer loop
      vertex  6.347669e-003  0.000000e+000 -9.679209e-002
      vertex -5.833650e-003  3.480000e-001 -9.682443e-002
      vertex  6.347669e-003  3.480000e-001 -9.679209e-002
    endloop
  endfacet
  facet normal  1.279666e-001  0.000000e+000 -9.917784e-001
    outer loop
      vertex  6.347669e-003  0.000000e+000 -9.679209e-002
      vertex  6.347669e-003  3.480000e-001 -9.679209e-002
      vertex  1.842888e-002  0.000000e+000 -9.523328e-002
    endloop
  endfacet
  facet normal  1.279666e-001  0.000000e+000 -9.917784e-001
    outer loop
      vertex  1.842888e-002  0.000000e+000 -9.523328e-002
      vertex  6.347669e-003  3.480000e-001 -9.679209e-002
      vertex  1.842888e-002  3.480000e-001 -9.523328e-002
    endloop
  endfacet
  facet normal  2.512609e-001  0.000000e+000 -9.679194e-001
    outer loop
      vertex  1.842888e-002  0.000000e+000 -9.523328e-002
      vertex  1.842888e-002  3.480000e-001 -9.523328e-002
      vertex  3.021946e-002  0.000000e+000 -9.217258e-002
    endloop
  endfacet
  facet normal  2.512609e-001  0.000000e+000 -9.679194e-001
    outer loop
      vertex  3.021946e-002  0.000000e+000 -9.217258e-002
      vertex  1.842888e-002  3.480000e-001 -9.523328e-002
      vertex  3.021946e-002  3.480000e-001 -9.217258e-002
    endloop
  endfacet
  facet normal  3.705913e-001  0.000000e+000 -9.287960e-001
    outer loop
      vertex  3.021946e-002  0.000000e+000 -9.217258e-002
      vertex  3.021946e-002  3.480000e-001 -9.217258e-002
      vertex  4.153346e-002  0.000000e+000 -8.765828e-002
    endloop
  endfacet
  facet normal  3.705913e-001  0.000000e+000 -9.287960e-001
    outer loop
      vertex  4.153346e-002  0.000000e+000 -8.765828e-002
      vertex  3.021946e-002  3.480000e-001 -9.217258e-002
      vertex  4.153346e-002  3.480000e-001 -8.765828e-002
    endloop
  endfacet
  facet normal  4.840786e-001  0.000000e+000 -8.750246e-001
    outer loop
      vertex  4.153346e-002  0.000000e+000 -8.765828e-002
      vertex  4.153346e-002  3.480000e-001 -8.765828e-002
      vertex  5.219245e-002  0.000000e+000 -8.176154e-002
    endloop
  endfacet
  facet normal  4.840786e-001  0.000000e+000 -8.750246e-001
    outer loop
      vertex  5.219245e-002  0.000000e+000 -8.176154e-002
      vertex  4.153346e-002  3.480000e-001 -8.765828e-002
      vertex  5.219245e-002  3.480000e-001 -8.176154e-002
    endloop
  endfacet
  facet normal  5.899310e-001  0.000000e+000 -8.074536e-001
    outer loop
      vertex  5.219245e-002  0.000000e+000 -8.176154e-002
      vertex  5.219245e-002  3.480000e-001 -8.176154e-002
      vertex  6.202833e-002  0.000000e+000 -7.457537e-002
    endloop
  endfacet
  facet normal  5.899310e-001  0.000000e+000 -8.074536e-001
    outer loop
      vertex  6.202833e-002  0.000000e+000 -7.457537e-002
      vertex  5.219245e-002  3.480000e-001 -8.176154e-002
      vertex  6.202833e-002  3.480000e-001 -7.457537e-002
    endloop
  endfacet
  facet normal  6.864799e-001  0.000000e+000 -7.271488e-001
    outer loop
      vertex  6.202833e-002  0.000000e+000 -7.457537e-002
      vertex  6.202833e-002  3.480000e-001 -7.457537e-002
      vertex  7.088600e-002  0.000000e+000 -6.621312e-002
    endloop
  endfacet
  facet normal  6.864799e-001  0.000000e+000 -7.271488e-001
    outer loop
      vertex  7.088600e-002  0.000000e+000 -6.621312e-002
      vertex  6.202833e-002  3.480000e-001 -7.457537e-002
      vertex  7.088600e-002  3.480000e-001 -6.621312e-002
    endloop
  endfacet
  facet normal  7.722028e-001  0.000000e+000 -6.353763e-001
    outer loop
      vertex  7.088600e-002  0.000000e+000 -6.621312e-002
      vertex  7.088600e-002  3.480000e-001 -6.621312e-002
      vertex  7.862575e-002  0.000000e+000 -5.680664e-002
    endloop
  endfacet
  facet normal  7.722028e-001  0.000000e+000 -6.353763e-001
    outer loop
      vertex  7.862575e-002  0.000000e+000 -5.680664e-002
      vertex  7.088600e-002  3.480000e-001 -6.621312e-002
      vertex  7.862575e-002  3.480000e-001 -5.680664e-002
    endloop
  endfacet
  facet normal  8.457475e-001  0.000000e+000 -5.335833e-001
    outer loop
      vertex  7.862575e-002  0.000000e+000 -5.680664e-002
      vertex  7.862575e-002  3.480000e-001 -5.680664e-002
      vertex  8.512551e-002  0.000000e+000 -4.650428e-002
    endloop
  endfacet
  facet normal  8.457475e-001  0.000000e+000 -5.335833e-001
    outer loop
      vertex  8.512551e-002  0.000000e+000 -4.650428e-002
      vertex  7.862575e-002  3.480000e-001 -5.680664e-002
      vertex  8.512551e-002  3.480000e-001 -4.650428e-002
    endloop
  endfacet
  facet normal  9.059543e-001  0.000000e+000 -4.233754e-001
    outer loop
      vertex  8.512551e-002  0.000000e+000 -4.650428e-002
      vertex  8.512551e-002  3.480000e-001 -4.650428e-002
      vertex  9.028281e-002  0.000000e+000 -3.546852e-002
    endloop
  endfacet
  facet normal  9.059543e-001  0.000000e+000 -4.233754e-001
    outer loop
      vertex  9.028281e-002  0.000000e+000 -3.546852e-002
      vertex  8.512551e-002  3.480000e-001 -4.650428e-002
      vertex  9.028281e-002  3.480000e-001 -3.546852e-002
    endloop
  endfacet
  facet normal  9.518734e-001  0.000000e+000 -3.064914e-001
    outer loop
      vertex  9.028281e-002  0.000000e+000 -3.546852e-002
      vertex  9.028281e-002  3.480000e-001 -3.546852e-002
      vertex  9.401628e-002  0.000000e+000 -2.387341e-002
    endloop
  endfacet
  facet normal  9.518734e-001  0.000000e+000 -3.064914e-001
    outer loop
      vertex  9.401628e-002  0.000000e+000 -2.387341e-002
      vertex  9.028281e-002  3.480000e-001 -3.546852e-002
      vertex  9.401628e-002  3.480000e-001 -2.387341e-002
    endloop
  endfacet
  facet normal  9.827814e-001  0.000000e+000 -1.847723e-001
    outer loop
      vertex  9.401628e-002  0.000000e+000 -2.387341e-002
      vertex  9.401628e-002  3.480000e-001 -2.387341e-002
      vertex  9.626707e-002  0.000000e+000 -1.190179e-002
    endloop
  endfacet
  facet normal  9.827814e-001  0.000000e+000 -1.847723e-001
    outer loop
      vertex  9.626707e-002  0.000000e+000 -1.190179e-002
      vertex  9.401628e-002  3.480000e-001 -2.387341e-002
      vertex  9.626707e-002  3.480000e-001 -1.190179e-002
    endloop
  endfacet
  facet normal  9.981899e-001  0.000000e+000 -6.014084e-002
    outer loop
      vertex  9.626707e-002  0.000000e+000 -1.190179e-002
      vertex  9.626707e-002  3.480000e-001 -1.190179e-002
      vertex  9.699966e-002  0.000000e+000  2.575177e-004
    endloop
  endfacet
  facet normal  9.981899e-001  0.000000e+000 -6.014084e-002
    outer loop
      vertex  9.699966e-002  0.000000e+000  2.575177e-004
      vertex  9.626707e-002  3.480000e-001 -1.190179e-002
      vertex  9.699966e-002  3.480000e-001  2.575177e-004
    endloop
  endfacet
  facet normal  9.978565e-001  0.000000e+000  6.543949e-002
    outer loop
      vertex  9.699966e-002  0.000000e+000  2.575177e-004
      vertex  9.699966e-002  3.480000e-001  2.575177e-004
      vertex  9.620252e-002  0.000000e+000  1.241277e-002
    endloop
  endfacet
  facet normal  9.978565e-001  -0.000000e+000  6.543949e-002
    outer loop
      vertex  9.620252e-002  0.000000e+000  1.241277e-002
      vertex  9.699966e-002  3.480000e-001  2.575177e-004
      vertex  9.620252e-002  3.480000e-001  1.241277e-002
    endloop
  endfacet
  facet normal  9.817862e-001  0.000000e+000  1.899889e-001
    outer loop
      vertex  9.620252e-002  0.000000e+000  1.241277e-002
      vertex  9.620252e-002  3.480000e-001  1.241277e-002
      vertex  9.388819e-002  0.000000e+000  2.437226e-002
    endloop
  endfacet
  facet normal  9.817862e-001  -0.000000e+000  1.899889e-001
    outer loop
      vertex  9.388819e-002  0.000000e+000  2.437226e-002
      vertex  9.620252e-002  3.480000e-001  1.241277e-002
      vertex  9.388819e-002  3.480000e-001  2.437226e-002
    endloop
  endfacet
  facet normal  9.502328e-001  0.000000e+000  3.115407e-001
    outer loop
      vertex  9.388819e-002  0.000000e+000  2.437226e-002
      vertex  9.388819e-002  3.480000e-001  2.437226e-002
      vertex  9.009320e-002  0.000000e+000  3.594739e-002
    endloop
  endfacet
  facet normal  9.502328e-001  -0.000000e+000  3.115407e-001
    outer loop
      vertex  9.009320e-002  0.000000e+000  3.594739e-002
      vertex  9.388819e-002  3.480000e-001  2.437226e-002
      vertex  9.009320e-002  3.480000e-001  3.594739e-002
    endloop
  endfacet
  facet normal  9.036935e-001  0.000000e+000  4.281799e-001
    outer loop
      vertex  9.009320e-002  0.000000e+000  3.594739e-002
      vertex  9.009320e-002  3.480000e-001  3.594739e-002
      vertex  8.487739e-002  0.000000e+000  4.695561e-002
    endloop
  endfacet
  facet normal  9.036935e-001  -0.000000e+000  4.281799e-001
    outer loop
      vertex  8.487739e-002  0.000000e+000  4.695561e-002
      vertex  9.009320e-002  3.480000e-001  3.594739e-002
      vertex  8.487739e-002  3.480000e-001  4.695561e-002
    endloop
  endfacet
  facet normal  8.429024e-001  0.000000e+000  5.380664e-001
    outer loop
      vertex  8.487739e-002  0.000000e+000  4.695561e-002
      vertex  8.487739e-002  3.480000e-001  4.695561e-002
      vertex  7.832301e-002  0.000000e+000  5.722331e-002
    endloop
  endfacet
  facet normal  8.429024e-001  -0.000000e+000  5.380664e-001
    outer loop
      vertex  7.832301e-002  0.000000e+000  5.722331e-002
      vertex  8.487739e-002  3.480000e-001  4.695561e-002
      vertex  7.832301e-002  3.480000e-001  5.722331e-002
    endloop
  endfacet
  facet normal  7.688182e-001  0.000000e+000  6.394674e-001
    outer loop
      vertex  7.832301e-002  0.000000e+000  5.722331e-002
      vertex  7.832301e-002  3.480000e-001  5.722331e-002
      vertex  7.053342e-002  0.000000e+000  6.658856e-002
    endloop
  endfacet
  facet normal  7.688182e-001  -0.000000e+000  6.394674e-001
    outer loop
      vertex  7.053342e-002  0.000000e+000  6.658856e-002
      vertex  7.832301e-002  3.480000e-001  5.722331e-002
      vertex  7.053342e-002  3.480000e-001  6.658856e-002
    endloop
  endfacet
  facet normal  6.826096e-001  0.000000e+000  7.307831e-001
    outer loop
      vertex  7.053342e-002  0.000000e+000  6.658856e-002
      vertex  7.053342e-002  3.480000e-001  6.658856e-002
      vertex  6.163149e-002  0.000000e+000  7.490367e-002
    endloop
  endfacet
  facet normal  6.826096e-001  -0.000000e+000  7.307831e-001
    outer loop
      vertex  6.163149e-002  0.000000e+000  7.490367e-002
      vertex  7.053342e-002  3.480000e-001  6.658856e-002
      vertex  6.163149e-002  3.480000e-001  7.490367e-002
    endloop
  endfacet
  facet normal  5.856353e-001  0.000000e+000  8.105747e-001
    outer loop
      vertex  6.163149e-002  0.000000e+000  7.490367e-002
      vertex  6.163149e-002  3.480000e-001  7.490367e-002
      vertex  5.175759e-002  0.000000e+000  8.203751e-002
    endloop
  endfacet
  facet normal  5.856353e-001  -0.000000e+000  8.105747e-001
    outer loop
      vertex  5.175759e-002  0.000000e+000  8.203751e-002
      vertex  6.163149e-002  3.480000e-001  7.490367e-002
      vertex  5.175759e-002  3.480000e-001  8.203751e-002
    endloop
  endfacet
  facet normal  4.794256e-001  0.000000e+000  8.775825e-001
    outer loop
      vertex  5.175759e-002  0.000000e+000  8.203751e-002
      vertex  5.175759e-002  3.480000e-001  8.203751e-002
      vertex  4.106744e-002  0.000000e+000  8.787756e-002
    endloop
  endfacet
  facet normal  4.794256e-001  -0.000000e+000  8.775825e-001
    outer loop
      vertex  4.106744e-002  0.000000e+000  8.787756e-002
      vertex  5.175759e-002  3.480000e-001  8.203751e-002
      vertex  4.106744e-002  3.480000e-001  8.787756e-002
    endloop
  endfacet
  facet normal  3.656546e-001  0.000000e+000  9.307505e-001
    outer loop
      vertex  4.106744e-002  0.000000e+000  8.787756e-002
      vertex  4.106744e-002  3.480000e-001  8.787756e-002
      vertex  2.972963e-002  0.000000e+000  9.233174e-002
    endloop
  endfacet
  facet normal  3.656546e-001  -0.000000e+000  9.307505e-001
    outer loop
      vertex  2.972963e-002  0.000000e+000  9.233174e-002
      vertex  4.106744e-002  3.480000e-001  8.787756e-002
      vertex  2.972963e-002  3.480000e-001  9.233174e-002
    endloop
  endfacet
  facet normal  2.461175e-001  0.000000e+000  9.692399e-001
    outer loop
      vertex  2.972963e-002  0.000000e+000  9.233174e-002
      vertex  2.972963e-002  3.480000e-001  9.233174e-002
      vertex  1.792297e-002  0.000000e+000  9.532978e-002
    endloop
  endfacet
  facet normal  2.461175e-001  -0.000000e+000  9.692399e-001
    outer loop
      vertex  1.792297e-002  0.000000e+000  9.532978e-002
      vertex  2.972963e-002  3.480000e-001  9.233174e-002
      vertex  1.792297e-002  3.480000e-001  9.532978e-002
    endloop
  endfacet
  facet normal  1.226993e-001  0.000000e+000  9.924439e-001
    outer loop
      vertex  1.792297e-002  0.000000e+000  9.532978e-002
      vertex  1.792297e-002  3.480000e-001  9.532978e-002
      vertex  5.833650e-003  0.000000e+000  9.682443e-002
    endloop
  endfacet
  facet normal  1.226993e-001  -0.000000e+000  9.924439e-001
    outer loop
      vertex  5.833650e-003  0.000000e+000  9.682443e-002
      vertex  1.792297e-002  3.480000e-001  9.532978e-002
      vertex  5.833650e-003  3.480000e-001  9.682443e-002
    endloop
  endfacet
  facet normal -2.654958e-003  0.000000e+000  9.999964e-001
    outer loop
      vertex  5.833650e-003  0.000000e+000  9.682443e-002
      vertex  5.833650e-003  3.480000e-001  9.682443e-002
      vertex -6.347669e-003  0.000000e+000  9.679209e-002
    endloop
  endfacet
  facet normal -2.654958e-003  0.000000e+000  9.999964e-001
    outer loop
      vertex -6.347669e-003  0.000000e+000  9.679209e-002
      vertex  5.833650e-003  3.480000e-001  9.682443e-002
      vertex -6.347669e-003  3.480000e-001  9.679209e-002
    endloop
  endfacet
  facet normal -1.279666e-001  0.000000e+000  9.917784e-001
    outer loop
      vertex -6.347669e-003  0.000000e+000  9.679209e-002
      vertex -6.347669e-003  3.480000e-001  9.679209e-002
      vertex -1.842888e-002  0.000000e+000  9.523328e-002
    endloop
  endfacet
  facet normal -1.279666e-001  0.000000e+000  9.917784e-001
    outer loop
      vertex -1.842888e-002  0.000000e+000  9.523328e-002
      vertex -6.347669e-003  3.480000e-001  9.679209e-002
      vertex -1.842888e-002  3.480000e-001  9.523328e-002
    endloop
  endfacet
  facet normal -2.512609e-001  0.000000e+000  9.679194e-001
    outer loop
      vertex -1.842888e-002  0.000000e+000  9.523328e-002
      vertex -1.842888e-002  3.480000e-001  9.523328e-002
      vertex -3.021946e-002  0.000000e+000  9.217258e-002
    endloop
  endfacet
  facet normal -2.512609e-001  0.000000e+000  9.679194e-001
    outer loop
      vertex -3.021946e-002  0.000000e+000  9.217258e-002
      vertex -1.842888e-002  3.480000e-001  9.523328e-002
      vertex -3.021946e-002  3.480000e-001  9.217258e-002
    endloop
  endfacet
  facet normal -3.705913e-001  0.000000e+000  9.287960e-001
    outer loop
      vertex -3.021946e-002  0.000000e+000  9.217258e-002
      vertex -3.021946e-002  3.480000e-001  9.217258e-002
      vertex -4.153346e-002  0.000000e+000  8.765828e-002
    endloop
  endfacet
  facet normal -3.705913e-001  0.000000e+000  9.287960e-001
    outer loop
      vertex -4.153346e-002  0.000000e+000  8.765828e-002
      vertex -3.021946e-002  3.480000e-001  9.217258e-002
      vertex -4.153346e-002  3.480000e-001  8.765828e-002
    endloop
  endfacet
  facet normal -4.840786e-001  0.000000e+000  8.750246e-001
    outer loop
      vertex -4.153346e-002  0.000000e+000  8.765828e-002
      vertex -4.153346e-002  3.480000e-001  8.765828e-002
      vertex -5.219245e-002  0.000000e+000  8.176154e-002
    endloop
  endfacet
  facet normal -4.840786e-001  0.000000e+000  8.750246e-001
    outer loop
      vertex -5.219245e-002  0.000000e+000  8.176154e-002
      vertex -4.153346e-002  3.480000e-001  8.765828e-002
      vertex -5.219245e-002  3.480000e-001  8.176154e-002
    endloop
  endfacet
  facet normal -5.899310e-001  0.000000e+000  8.074536e-001
    outer loop
      vertex -5.219245e-002  0.000000e+000  8.176154e-002
      vertex -5.219245e-002  3.480000e-001  8.176154e-002
      vertex -6.202833e-002  0.000000e+000  7.457537e-002
    endloop
  endfacet
  facet normal -5.899310e-001  0.000000e+000  8.074536e-001
    outer loop
      vertex -6.202833e-002  0.000000e+000  7.457537e-002
      vertex -5.219245e-002  3.480000e-001  8.176154e-002
      vertex -6.202833e-002  3.480000e-001  7.457537e-002
    endloop
  endfacet
  facet normal -6.864799e-001  0.000000e+000  7.271488e-001
    outer loop
      vertex -6.202833e-002  0.000000e+000  7.457537e-002
      vertex -6.202833e-002  3.480000e-001  7.457537e-002
      vertex -7.088600e-002  0.000000e+000  6.621312e-002
    endloop
  endfacet
  facet normal -6.864799e-001  0.000000e+000  7.271488e-001
    outer loop
      vertex -7.088600e-002  0.000000e+000  6.621312e-002
      vertex -6.202833e-002  3.480000e-001  7.457537e-002
      vertex -7.088600e-002  3.480000e-001  6.621312e-002
    endloop
  endfacet
  facet normal -7.722028e-001  0.000000e+000  6.353763e-001
    outer loop
      vertex -7.088600e-002  0.000000e+000  6.621312e-002
      vertex -7.088600e-002  3.480000e-001  6.621312e-002
      vertex -7.862575e-002  0.000000e+000  5.680664e-002
    endloop
  endfacet
  facet normal -7.722028e-001  0.000000e+000  6.353763e-001
    outer loop
      vertex -7.862575e-002  0.000000e+000  5.680664e-002
      vertex -7.088600e-002  3.480000e-001  6.621312e-002
      vertex -7.862575e-002  3.480000e-001  5.680664e-002
    endloop
  endfacet
  facet normal -8.457475e-001  0.000000e+000  5.335833e-001
    outer loop
      vertex -7.862575e-002  0.000000e+000  5.680664e-002
      vertex -7.862575e-002  3.480000e-001  5.680664e-002
      vertex -8.512551e-002  0.000000e+000  4.650428e-002
    endloop
  endfacet
  facet normal -8.457475e-001  0.000000e+000  5.335833e-001
    outer loop
      vertex -8.512551e-002  0.000000e+000  4.650428e-002
      vertex -7.862575e-002  3.480000e-001  5.680664e-002
      vertex -8.512551e-002  3.480000e-001  4.650428e-002
    endloop
  endfacet
endsolid CATIA STL
