solid 
 facet normal -1.000000e+00  0.000000e+00  0.000000e+00
   outer loop
     vertex -4.050000e-01  4.000755e-01 -1.406642e-01
     vertex -4.050000e-01  6.500755e-01 -1.406642e-01
     vertex -4.050000e-01  6.500755e-01 -2.606642e-01
   endloop
 endfacet
 facet normal -1.000000e+00  0.000000e+00  0.000000e+00
   outer loop
     vertex -4.050000e-01  2.000755e-01 -1.406642e-01
     vertex -4.050000e-01  4.000755e-01 -1.406642e-01
     vertex -4.050000e-01  6.500755e-01 -2.606642e-01
   endloop
 endfacet
 facet normal -1.000000e+00  0.000000e+00 -0.000000e+00
   outer loop
     vertex -4.050000e-01  4.700755e-01  2.093358e-01
     vertex -4.050000e-01  4.700755e-01  9.933575e-02
     vertex -4.050000e-01  4.000755e-01  9.933575e-02
   endloop
 endfacet
 facet normal -1.000000e+00  0.000000e+00  0.000000e+00
   outer loop
     vertex -4.050000e-01  2.000755e-01  9.933575e-02
     vertex -4.050000e-01  4.000755e-01  9.933575e-02
     vertex -4.050000e-01  4.000755e-01 -1.406642e-01
   endloop
 endfacet
 facet normal -1.000000e+00  0.000000e+00  0.000000e+00
   outer loop
     vertex -4.050000e-01  2.000755e-01  9.933575e-02
     vertex -4.050000e-01  4.700755e-01  2.093358e-01
     vertex -4.050000e-01  4.000755e-01  9.933575e-02
   endloop
 endfacet
 facet normal -1.000000e+00  0.000000e+00  0.000000e+00
   outer loop
     vertex -4.050000e-01  2.000755e-01  9.933575e-02
     vertex -4.050000e-01  4.000755e-01 -1.406642e-01
     vertex -4.050000e-01  2.000755e-01 -1.406642e-01
   endloop
 endfacet
 facet normal -1.000000e+00  0.000000e+00  0.000000e+00
   outer loop
     vertex -4.050000e-01 -6.499245e-01 -2.606642e-01
     vertex -4.050000e-01 -3.999245e-01 -1.406642e-01
     vertex -4.050000e-01 -1.999245e-01 -1.406642e-01
   endloop
 endfacet
 facet normal -1.000000e+00  0.000000e+00  0.000000e+00
   outer loop
     vertex -4.050000e-01 -3.999245e-01  9.933575e-02
     vertex -4.050000e-01 -1.999245e-01  9.933575e-02
     vertex -4.050000e-01 -1.999245e-01 -1.406642e-01
   endloop
 endfacet
 facet normal -1.000000e+00  0.000000e+00  0.000000e+00
   outer loop
     vertex -4.050000e-01 -3.999245e-01  9.933575e-02
     vertex -4.050000e-01 -1.999245e-01 -1.406642e-01
     vertex -4.050000e-01 -3.999245e-01 -1.406642e-01
   endloop
 endfacet
 facet normal -1.000000e+00  0.000000e+00  0.000000e+00
   outer loop
     vertex -4.050000e-01 -6.499245e-01 -1.406642e-01
     vertex -4.050000e-01 -3.999245e-01 -1.406642e-01
     vertex -4.050000e-01 -6.499245e-01 -2.606642e-01
   endloop
 endfacet
 facet normal -1.000000e+00  0.000000e+00  0.000000e+00
   outer loop
     vertex -4.050000e-01 -4.699245e-01  2.093358e-01
     vertex -4.050000e-01 -3.999245e-01  9.933575e-02
     vertex -4.050000e-01 -4.699245e-01  9.933575e-02
   endloop
 endfacet
 facet normal -1.000000e+00  0.000000e+00  0.000000e+00
   outer loop
     vertex -4.050000e-01 -4.699245e-01  2.093358e-01
     vertex -4.050000e-01  2.000755e-01  9.933575e-02
     vertex -4.050000e-01 -1.999245e-01  9.933575e-02
   endloop
 endfacet
 facet normal -1.000000e+00  0.000000e+00  0.000000e+00
   outer loop
     vertex -4.050000e-01 -4.699245e-01  2.093358e-01
     vertex -4.050000e-01  4.700755e-01  2.093358e-01
     vertex -4.050000e-01  2.000755e-01  9.933575e-02
   endloop
 endfacet
 facet normal -1.000000e+00  0.000000e+00  0.000000e+00
   outer loop
     vertex -4.050000e-01 -4.699245e-01  2.093358e-01
     vertex -4.050000e-01 -1.999245e-01  9.933575e-02
     vertex -4.050000e-01 -3.999245e-01  9.933575e-02
   endloop
 endfacet
 facet normal -1.000000e+00  0.000000e+00  0.000000e+00
   outer loop
     vertex -4.050000e-01 -6.499245e-01 -2.606642e-01
     vertex -4.050000e-01  2.000755e-01 -1.406642e-01
     vertex -4.050000e-01  6.500755e-01 -2.606642e-01
   endloop
 endfacet
 facet normal -1.000000e+00  0.000000e+00  0.000000e+00
   outer loop
     vertex -4.050000e-01 -6.499245e-01 -2.606642e-01
     vertex -4.050000e-01 -1.999245e-01 -1.406642e-01
     vertex -4.050000e-01  2.000755e-01 -1.406642e-01
   endloop
 endfacet
 facet normal  0.000000e+00 -1.000000e+00 -0.000000e+00
   outer loop
     vertex -2.150000e-01 -6.499245e-01 -1.406642e-01
     vertex -4.050000e-01 -6.499245e-01 -2.606642e-01
     vertex -2.150000e-01 -6.499245e-01 -2.606642e-01
   endloop
 endfacet
 facet normal -0.000000e+00 -1.000000e+00  0.000000e+00
   outer loop
     vertex -2.150000e-01 -6.499245e-01 -1.406642e-01
     vertex -4.050000e-01 -6.499245e-01 -1.406642e-01
     vertex -4.050000e-01 -6.499245e-01 -2.606642e-01
   endloop
 endfacet
 facet normal  0.000000e+00  0.000000e+00  1.000000e+00
   outer loop
     vertex -2.150000e-01 -3.999245e-01 -1.406642e-01
     vertex -4.050000e-01 -3.999245e-01 -1.406642e-01
     vertex -4.050000e-01 -6.499245e-01 -1.406642e-01
   endloop
 endfacet
 facet normal  0.000000e+00  0.000000e+00  1.000000e+00
   outer loop
     vertex -2.150000e-01 -3.999245e-01 -1.406642e-01
     vertex -4.050000e-01 -6.499245e-01 -1.406642e-01
     vertex -2.150000e-01 -6.499245e-01 -1.406642e-01
   endloop
 endfacet
 facet normal  0.000000e+00 -1.000000e+00 -0.000000e+00
   outer loop
     vertex -2.150000e-01 -3.999245e-01  9.933575e-02
     vertex -4.050000e-01 -3.999245e-01 -1.406642e-01
     vertex -2.150000e-01 -3.999245e-01 -1.406642e-01
   endloop
 endfacet
 facet normal -0.000000e+00 -1.000000e+00  0.000000e+00
   outer loop
     vertex -2.150000e-01 -3.999245e-01  9.933575e-02
     vertex -4.050000e-01 -3.999245e-01  9.933575e-02
     vertex -4.050000e-01 -3.999245e-01 -1.406642e-01
   endloop
 endfacet
 facet normal  0.000000e+00  1.000000e+00  0.000000e+00
   outer loop
     vertex -2.150000e-01 -1.999245e-01  9.933575e-02
     vertex -2.150000e-01 -1.999245e-01 -1.406642e-01
     vertex -4.050000e-01 -1.999245e-01 -1.406642e-01
   endloop
 endfacet
 facet normal  0.000000e+00  1.000000e+00  0.000000e+00
   outer loop
     vertex -2.150000e-01 -1.999245e-01  9.933575e-02
     vertex -4.050000e-01 -1.999245e-01 -1.406642e-01
     vertex -4.050000e-01 -1.999245e-01  9.933575e-02
   endloop
 endfacet
 facet normal -0.000000e+00  0.000000e+00 -1.000000e+00
   outer loop
     vertex -2.150000e-01  6.500755e-01 -2.606642e-01
     vertex -4.050000e-01 -6.499245e-01 -2.606642e-01
     vertex -4.050000e-01  6.500755e-01 -2.606642e-01
   endloop
 endfacet
 facet normal  0.000000e+00 -0.000000e+00 -1.000000e+00
   outer loop
     vertex -2.150000e-01  6.500755e-01 -2.606642e-01
     vertex -2.150000e-01 -6.499245e-01 -2.606642e-01
     vertex -4.050000e-01 -6.499245e-01 -2.606642e-01
   endloop
 endfacet
 facet normal  0.000000e+00  0.000000e+00  1.000000e+00
   outer loop
     vertex -2.150000e-01  2.000755e-01 -1.406642e-01
     vertex -4.050000e-01  2.000755e-01 -1.406642e-01
     vertex -4.050000e-01 -1.999245e-01 -1.406642e-01
   endloop
 endfacet
 facet normal  0.000000e+00  0.000000e+00  1.000000e+00
   outer loop
     vertex -2.150000e-01  2.000755e-01 -1.406642e-01
     vertex -4.050000e-01 -1.999245e-01 -1.406642e-01
     vertex -2.150000e-01 -1.999245e-01 -1.406642e-01
   endloop
 endfacet
 facet normal  0.000000e+00 -1.000000e+00 -0.000000e+00
   outer loop
     vertex -2.150000e-01  2.000755e-01  9.933575e-02
     vertex -4.050000e-01  2.000755e-01 -1.406642e-01
     vertex -2.150000e-01  2.000755e-01 -1.406642e-01
   endloop
 endfacet
 facet normal -0.000000e+00 -1.000000e+00  0.000000e+00
   outer loop
     vertex -2.150000e-01  2.000755e-01  9.933575e-02
     vertex -4.050000e-01  2.000755e-01  9.933575e-02
     vertex -4.050000e-01  2.000755e-01 -1.406642e-01
   endloop
 endfacet
 facet normal  0.000000e+00  1.000000e+00  0.000000e+00
   outer loop
     vertex -2.150000e-01  4.000755e-01  9.933575e-02
     vertex -2.150000e-01  4.000755e-01 -1.406642e-01
     vertex -4.050000e-01  4.000755e-01 -1.406642e-01
   endloop
 endfacet
 facet normal  0.000000e+00  1.000000e+00  0.000000e+00
   outer loop
     vertex -2.150000e-01  4.000755e-01  9.933575e-02
     vertex -4.050000e-01  4.000755e-01 -1.406642e-01
     vertex -4.050000e-01  4.000755e-01  9.933575e-02
   endloop
 endfacet
 facet normal  0.000000e+00  0.000000e+00  1.000000e+00
   outer loop
     vertex -2.150000e-01  6.500755e-01 -1.406642e-01
     vertex -4.050000e-01  6.500755e-01 -1.406642e-01
     vertex -4.050000e-01  4.000755e-01 -1.406642e-01
   endloop
 endfacet
 facet normal  0.000000e+00  0.000000e+00  1.000000e+00
   outer loop
     vertex -2.150000e-01  6.500755e-01 -1.406642e-01
     vertex -4.050000e-01  4.000755e-01 -1.406642e-01
     vertex -2.150000e-01  4.000755e-01 -1.406642e-01
   endloop
 endfacet
 facet normal  0.000000e+00  1.000000e+00  0.000000e+00
   outer loop
     vertex -2.150000e-01  6.500755e-01 -1.406642e-01
     vertex -2.150000e-01  6.500755e-01 -2.606642e-01
     vertex -4.050000e-01  6.500755e-01 -2.606642e-01
   endloop
 endfacet
 facet normal  0.000000e+00  1.000000e+00  0.000000e+00
   outer loop
     vertex -2.150000e-01  6.500755e-01 -1.406642e-01
     vertex -4.050000e-01  6.500755e-01 -2.606642e-01
     vertex -4.050000e-01  6.500755e-01 -1.406642e-01
   endloop
 endfacet
 facet normal  1.000000e+00 -0.000000e+00  0.000000e+00
   outer loop
     vertex -2.150000e-01  4.000755e-01 -1.406642e-01
     vertex -2.150000e-01  6.500755e-01 -2.606642e-01
     vertex -2.150000e-01  6.500755e-01 -1.406642e-01
   endloop
 endfacet
 facet normal  1.000000e+00  0.000000e+00  0.000000e+00
   outer loop
     vertex -2.150000e-01  3.300755e-01 -8.066425e-02
     vertex -2.150000e-01  3.300755e-01 -1.206642e-01
     vertex -2.150000e-01  4.000755e-01 -1.406642e-01
   endloop
 endfacet
 facet normal  1.000000e+00  0.000000e+00  0.000000e+00
   outer loop
     vertex -2.150000e-01  2.000755e-01 -1.406642e-01
     vertex -2.150000e-01  3.300755e-01 -1.206642e-01
     vertex -2.150000e-01  2.500755e-01 -1.206642e-01
   endloop
 endfacet
 facet normal  1.000000e+00 -0.000000e+00  0.000000e+00
   outer loop
     vertex -2.150000e-01  2.000755e-01 -1.406642e-01
     vertex -2.150000e-01  6.500755e-01 -2.606642e-01
     vertex -2.150000e-01  4.000755e-01 -1.406642e-01
   endloop
 endfacet
 facet normal  1.000000e+00  0.000000e+00  0.000000e+00
   outer loop
     vertex -2.150000e-01  2.000755e-01 -1.406642e-01
     vertex -2.150000e-01  4.000755e-01 -1.406642e-01
     vertex -2.150000e-01  3.300755e-01 -1.206642e-01
   endloop
 endfacet
 facet normal  1.000000e+00  0.000000e+00  0.000000e+00
   outer loop
     vertex -2.150000e-01  2.500755e-01 -8.066425e-02
     vertex -2.150000e-01  2.000755e-01 -1.406642e-01
     vertex -2.150000e-01  2.500755e-01 -1.206642e-01
   endloop
 endfacet
 facet normal  1.000000e+00  0.000000e+00  0.000000e+00
   outer loop
     vertex -2.150000e-01  4.000755e-01  9.933575e-02
     vertex -2.150000e-01  3.300755e-01 -8.066425e-02
     vertex -2.150000e-01  4.000755e-01 -1.406642e-01
   endloop
 endfacet
 facet normal  1.000000e+00  0.000000e+00  0.000000e+00
   outer loop
     vertex -2.150000e-01  2.000755e-01  9.933575e-02
     vertex -2.150000e-01  2.500755e-01 -8.066425e-02
     vertex -2.150000e-01  3.300755e-01 -8.066425e-02
   endloop
 endfacet
 facet normal  1.000000e+00 -0.000000e+00  0.000000e+00
   outer loop
     vertex -2.150000e-01  2.000755e-01  9.933575e-02
     vertex -2.150000e-01  3.300755e-01 -8.066425e-02
     vertex -2.150000e-01  4.000755e-01  9.933575e-02
   endloop
 endfacet
 facet normal  1.000000e+00  0.000000e+00  0.000000e+00
   outer loop
     vertex -2.150000e-01  2.000755e-01  9.933575e-02
     vertex -2.150000e-01  2.000755e-01 -1.406642e-01
     vertex -2.150000e-01  2.500755e-01 -8.066425e-02
   endloop
 endfacet
 facet normal  1.000000e+00  0.000000e+00  0.000000e+00
   outer loop
     vertex -2.150000e-01 -2.599245e-01 -8.066425e-02
     vertex -2.150000e-01 -2.599245e-01 -1.206642e-01
     vertex -2.150000e-01 -1.999245e-01 -1.406642e-01
   endloop
 endfacet
 facet normal  1.000000e+00  0.000000e+00  0.000000e+00
   outer loop
     vertex -2.150000e-01 -3.999245e-01 -1.406642e-01
     vertex -2.150000e-01 -3.399245e-01 -1.206642e-01
     vertex -2.150000e-01 -3.399245e-01 -8.066425e-02
   endloop
 endfacet
 facet normal  1.000000e+00  0.000000e+00  0.000000e+00
   outer loop
     vertex -2.150000e-01 -3.999245e-01 -1.406642e-01
     vertex -2.150000e-01 -2.599245e-01 -1.206642e-01
     vertex -2.150000e-01 -3.399245e-01 -1.206642e-01
   endloop
 endfacet
 facet normal  1.000000e+00  0.000000e+00  0.000000e+00
   outer loop
     vertex -2.150000e-01 -3.999245e-01 -1.406642e-01
     vertex -2.150000e-01 -1.999245e-01 -1.406642e-01
     vertex -2.150000e-01 -2.599245e-01 -1.206642e-01
   endloop
 endfacet
 facet normal  1.000000e+00  0.000000e+00  0.000000e+00
   outer loop
     vertex -2.150000e-01 -1.999245e-01  9.933575e-02
     vertex -2.150000e-01 -2.599245e-01 -8.066425e-02
     vertex -2.150000e-01 -1.999245e-01 -1.406642e-01
   endloop
 endfacet
 facet normal  1.000000e+00  0.000000e+00  0.000000e+00
   outer loop
     vertex -2.150000e-01 -6.499245e-01 -2.606642e-01
     vertex -2.150000e-01 -1.999245e-01 -1.406642e-01
     vertex -2.150000e-01 -3.999245e-01 -1.406642e-01
   endloop
 endfacet
 facet normal  1.000000e+00  0.000000e+00  0.000000e+00
   outer loop
     vertex -2.150000e-01 -3.999245e-01  9.933575e-02
     vertex -2.150000e-01 -3.399245e-01 -8.066425e-02
     vertex -2.150000e-01 -2.599245e-01 -8.066425e-02
   endloop
 endfacet
 facet normal  1.000000e+00 -0.000000e+00  0.000000e+00
   outer loop
     vertex -2.150000e-01 -3.999245e-01  9.933575e-02
     vertex -2.150000e-01 -2.599245e-01 -8.066425e-02
     vertex -2.150000e-01 -1.999245e-01  9.933575e-02
   endloop
 endfacet
 facet normal  1.000000e+00  0.000000e+00  0.000000e+00
   outer loop
     vertex -2.150000e-01 -3.999245e-01  9.933575e-02
     vertex -2.150000e-01 -3.999245e-01 -1.406642e-01
     vertex -2.150000e-01 -3.399245e-01 -8.066425e-02
   endloop
 endfacet
 facet normal  1.000000e+00 -0.000000e+00  0.000000e+00
   outer loop
     vertex -2.150000e-01 -6.499245e-01 -1.406642e-01
     vertex -2.150000e-01 -6.499245e-01 -2.606642e-01
     vertex -2.150000e-01 -3.999245e-01 -1.406642e-01
   endloop
 endfacet
 facet normal  1.000000e+00  0.000000e+00  0.000000e+00
   outer loop
     vertex -2.150000e-01 -6.499245e-01 -2.606642e-01
     vertex -2.150000e-01  6.500755e-01 -2.606642e-01
     vertex -2.150000e-01  2.000755e-01 -1.406642e-01
   endloop
 endfacet
 facet normal  1.000000e+00  0.000000e+00  0.000000e+00
   outer loop
     vertex -2.150000e-01 -6.499245e-01 -2.606642e-01
     vertex -2.150000e-01  2.000755e-01 -1.406642e-01
     vertex -2.150000e-01 -1.999245e-01 -1.406642e-01
   endloop
 endfacet
 facet normal  0.000000e+00 -1.000000e+00 -0.000000e+00
   outer loop
     vertex  4.050000e-01 -4.699245e-01  2.093358e-01
     vertex -4.050000e-01 -4.699245e-01  9.933575e-02
     vertex  4.050000e-01 -4.699245e-01  9.933575e-02
   endloop
 endfacet
 facet normal -0.000000e+00 -1.000000e+00  0.000000e+00
   outer loop
     vertex  4.050000e-01 -4.699245e-01  2.093358e-01
     vertex -4.050000e-01 -4.699245e-01  2.093358e-01
     vertex -4.050000e-01 -4.699245e-01  9.933575e-02
   endloop
 endfacet
 facet normal  0.000000e+00 -1.000000e+00 -0.000000e+00
   outer loop
     vertex  2.150000e-01 -3.399245e-01 -8.066425e-02
     vertex -2.150000e-01 -3.399245e-01 -1.206642e-01
     vertex  2.150000e-01 -3.399245e-01 -1.206642e-01
   endloop
 endfacet
 facet normal -0.000000e+00 -1.000000e+00  0.000000e+00
   outer loop
     vertex  2.150000e-01 -3.399245e-01 -8.066425e-02
     vertex -2.150000e-01 -3.399245e-01 -8.066425e-02
     vertex -2.150000e-01 -3.399245e-01 -1.206642e-01
   endloop
 endfacet
 facet normal -0.000000e+00  0.000000e+00 -1.000000e+00
   outer loop
     vertex  2.150000e-01 -2.599245e-01 -1.206642e-01
     vertex -2.150000e-01 -3.399245e-01 -1.206642e-01
     vertex -2.150000e-01 -2.599245e-01 -1.206642e-01
   endloop
 endfacet
 facet normal  0.000000e+00 -0.000000e+00 -1.000000e+00
   outer loop
     vertex  2.150000e-01 -2.599245e-01 -1.206642e-01
     vertex  2.150000e-01 -3.399245e-01 -1.206642e-01
     vertex -2.150000e-01 -3.399245e-01 -1.206642e-01
   endloop
 endfacet
 facet normal  0.000000e+00  0.000000e+00  1.000000e+00
   outer loop
     vertex  2.150000e-01 -2.599245e-01 -8.066425e-02
     vertex -2.150000e-01 -2.599245e-01 -8.066425e-02
     vertex -2.150000e-01 -3.399245e-01 -8.066425e-02
   endloop
 endfacet
 facet normal  0.000000e+00  0.000000e+00  1.000000e+00
   outer loop
     vertex  2.150000e-01 -2.599245e-01 -8.066425e-02
     vertex -2.150000e-01 -3.399245e-01 -8.066425e-02
     vertex  2.150000e-01 -3.399245e-01 -8.066425e-02
   endloop
 endfacet
 facet normal  0.000000e+00  1.000000e+00  0.000000e+00
   outer loop
     vertex  2.150000e-01 -2.599245e-01 -8.066425e-02
     vertex  2.150000e-01 -2.599245e-01 -1.206642e-01
     vertex -2.150000e-01 -2.599245e-01 -1.206642e-01
   endloop
 endfacet
 facet normal  0.000000e+00  1.000000e+00  0.000000e+00
   outer loop
     vertex  2.150000e-01 -2.599245e-01 -8.066425e-02
     vertex -2.150000e-01 -2.599245e-01 -1.206642e-01
     vertex -2.150000e-01 -2.599245e-01 -8.066425e-02
   endloop
 endfacet
 facet normal -0.000000e+00  0.000000e+00 -1.000000e+00
   outer loop
     vertex -2.150000e-01 -3.999245e-01  9.933575e-02
     vertex -4.050000e-01 -4.699245e-01  9.933575e-02
     vertex -4.050000e-01 -3.999245e-01  9.933575e-02
   endloop
 endfacet
 facet normal  0.000000e+00  0.000000e+00 -1.000000e+00
   outer loop
     vertex  4.050000e-01 -4.699245e-01  9.933575e-02
     vertex -4.050000e-01 -4.699245e-01  9.933575e-02
     vertex -2.150000e-01 -3.999245e-01  9.933575e-02
   endloop
 endfacet
 facet normal  0.000000e+00  0.000000e+00 -1.000000e+00
   outer loop
     vertex  4.050000e-01 -4.699245e-01  9.933575e-02
     vertex -2.150000e-01 -3.999245e-01  9.933575e-02
     vertex  2.150000e-01 -3.999245e-01  9.933575e-02
   endloop
 endfacet
 facet normal -0.000000e+00  0.000000e+00 -1.000000e+00
   outer loop
     vertex -2.150000e-01  2.000755e-01  9.933575e-02
     vertex -4.050000e-01 -1.999245e-01  9.933575e-02
     vertex -4.050000e-01  2.000755e-01  9.933575e-02
   endloop
 endfacet
 facet normal  0.000000e+00 -0.000000e+00 -1.000000e+00
   outer loop
     vertex -2.150000e-01  2.000755e-01  9.933575e-02
     vertex -2.150000e-01 -1.999245e-01  9.933575e-02
     vertex -4.050000e-01 -1.999245e-01  9.933575e-02
   endloop
 endfacet
 facet normal -0.000000e+00 -0.000000e+00 -1.000000e+00
   outer loop
     vertex  4.050000e-01 -3.999245e-01  9.933575e-02
     vertex  4.050000e-01 -4.699245e-01  9.933575e-02
     vertex  2.150000e-01 -3.999245e-01  9.933575e-02
   endloop
 endfacet
 facet normal -0.000000e+00  0.000000e+00 -1.000000e+00
   outer loop
     vertex  2.150000e-01 -1.999245e-01  9.933575e-02
     vertex -2.150000e-01 -3.999245e-01  9.933575e-02
     vertex -2.150000e-01 -1.999245e-01  9.933575e-02
   endloop
 endfacet
 facet normal  0.000000e+00 -0.000000e+00 -1.000000e+00
   outer loop
     vertex  2.150000e-01 -1.999245e-01  9.933575e-02
     vertex  2.150000e-01 -3.999245e-01  9.933575e-02
     vertex -2.150000e-01 -3.999245e-01  9.933575e-02
   endloop
 endfacet
 facet normal  0.000000e+00  0.000000e+00 -1.000000e+00
   outer loop
     vertex -2.150000e-01  4.000755e-01  9.933575e-02
     vertex -4.050000e-01  4.000755e-01  9.933575e-02
     vertex -4.050000e-01  4.700755e-01  9.933575e-02
   endloop
 endfacet
 facet normal -0.000000e+00  0.000000e+00 -1.000000e+00
   outer loop
     vertex  2.150000e-01  2.000755e-01  9.933575e-02
     vertex -2.150000e-01 -1.999245e-01  9.933575e-02
     vertex -2.150000e-01  2.000755e-01  9.933575e-02
   endloop
 endfacet
 facet normal  0.000000e+00 -0.000000e+00 -1.000000e+00
   outer loop
     vertex  2.150000e-01  2.000755e-01  9.933575e-02
     vertex  2.150000e-01 -1.999245e-01  9.933575e-02
     vertex -2.150000e-01 -1.999245e-01  9.933575e-02
   endloop
 endfacet
 facet normal  0.000000e+00 -0.000000e+00 -1.000000e+00
   outer loop
     vertex  4.050000e-01  2.000755e-01  9.933575e-02
     vertex  4.050000e-01 -1.999245e-01  9.933575e-02
     vertex  2.150000e-01 -1.999245e-01  9.933575e-02
   endloop
 endfacet
 facet normal -0.000000e+00  0.000000e+00 -1.000000e+00
   outer loop
     vertex  4.050000e-01  2.000755e-01  9.933575e-02
     vertex  2.150000e-01 -1.999245e-01  9.933575e-02
     vertex  2.150000e-01  2.000755e-01  9.933575e-02
   endloop
 endfacet
 facet normal -0.000000e+00  0.000000e+00 -1.000000e+00
   outer loop
     vertex  2.150000e-01  4.000755e-01  9.933575e-02
     vertex -2.150000e-01  2.000755e-01  9.933575e-02
     vertex -2.150000e-01  4.000755e-01  9.933575e-02
   endloop
 endfacet
 facet normal  0.000000e+00 -0.000000e+00 -1.000000e+00
   outer loop
     vertex  2.150000e-01  4.000755e-01  9.933575e-02
     vertex  2.150000e-01  2.000755e-01  9.933575e-02
     vertex -2.150000e-01  2.000755e-01  9.933575e-02
   endloop
 endfacet
 facet normal  0.000000e+00 -0.000000e+00 -1.000000e+00
   outer loop
     vertex  4.050000e-01  4.700755e-01  9.933575e-02
     vertex  4.050000e-01  4.000755e-01  9.933575e-02
     vertex  2.150000e-01  4.000755e-01  9.933575e-02
   endloop
 endfacet
 facet normal -0.000000e+00  0.000000e+00 -1.000000e+00
   outer loop
     vertex  4.050000e-01  4.700755e-01  9.933575e-02
     vertex  2.150000e-01  4.000755e-01  9.933575e-02
     vertex -4.050000e-01  4.700755e-01  9.933575e-02
   endloop
 endfacet
 facet normal  0.000000e+00  0.000000e+00 -1.000000e+00
   outer loop
     vertex  2.150000e-01  4.000755e-01  9.933575e-02
     vertex -2.150000e-01  4.000755e-01  9.933575e-02
     vertex -4.050000e-01  4.700755e-01  9.933575e-02
   endloop
 endfacet
 facet normal  0.000000e+00  0.000000e+00  1.000000e+00
   outer loop
     vertex  4.050000e-01  4.700755e-01  2.093358e-01
     vertex -4.050000e-01  4.700755e-01  2.093358e-01
     vertex -4.050000e-01 -4.699245e-01  2.093358e-01
   endloop
 endfacet
 facet normal  0.000000e+00  0.000000e+00  1.000000e+00
   outer loop
     vertex  4.050000e-01  4.700755e-01  2.093358e-01
     vertex -4.050000e-01 -4.699245e-01  2.093358e-01
     vertex  4.050000e-01 -4.699245e-01  2.093358e-01
   endloop
 endfacet
 facet normal  0.000000e+00 -1.000000e+00 -0.000000e+00
   outer loop
     vertex  2.150000e-01  2.500755e-01 -8.066425e-02
     vertex -2.150000e-01  2.500755e-01 -1.206642e-01
     vertex  2.150000e-01  2.500755e-01 -1.206642e-01
   endloop
 endfacet
 facet normal -0.000000e+00 -1.000000e+00  0.000000e+00
   outer loop
     vertex  2.150000e-01  2.500755e-01 -8.066425e-02
     vertex -2.150000e-01  2.500755e-01 -8.066425e-02
     vertex -2.150000e-01  2.500755e-01 -1.206642e-01
   endloop
 endfacet
 facet normal -0.000000e+00  0.000000e+00 -1.000000e+00
   outer loop
     vertex  2.150000e-01  3.300755e-01 -1.206642e-01
     vertex -2.150000e-01  2.500755e-01 -1.206642e-01
     vertex -2.150000e-01  3.300755e-01 -1.206642e-01
   endloop
 endfacet
 facet normal  0.000000e+00 -0.000000e+00 -1.000000e+00
   outer loop
     vertex  2.150000e-01  3.300755e-01 -1.206642e-01
     vertex  2.150000e-01  2.500755e-01 -1.206642e-01
     vertex -2.150000e-01  2.500755e-01 -1.206642e-01
   endloop
 endfacet
 facet normal  0.000000e+00  0.000000e+00  1.000000e+00
   outer loop
     vertex  2.150000e-01  3.300755e-01 -8.066425e-02
     vertex -2.150000e-01  3.300755e-01 -8.066425e-02
     vertex -2.150000e-01  2.500755e-01 -8.066425e-02
   endloop
 endfacet
 facet normal  0.000000e+00  0.000000e+00  1.000000e+00
   outer loop
     vertex  2.150000e-01  3.300755e-01 -8.066425e-02
     vertex -2.150000e-01  2.500755e-01 -8.066425e-02
     vertex  2.150000e-01  2.500755e-01 -8.066425e-02
   endloop
 endfacet
 facet normal  0.000000e+00  1.000000e+00  0.000000e+00
   outer loop
     vertex  2.150000e-01  3.300755e-01 -8.066425e-02
     vertex  2.150000e-01  3.300755e-01 -1.206642e-01
     vertex -2.150000e-01  3.300755e-01 -1.206642e-01
   endloop
 endfacet
 facet normal  0.000000e+00  1.000000e+00  0.000000e+00
   outer loop
     vertex  2.150000e-01  3.300755e-01 -8.066425e-02
     vertex -2.150000e-01  3.300755e-01 -1.206642e-01
     vertex -2.150000e-01  3.300755e-01 -8.066425e-02
   endloop
 endfacet
 facet normal  0.000000e+00  1.000000e+00  0.000000e+00
   outer loop
     vertex  4.050000e-01  4.700755e-01  2.093358e-01
     vertex  4.050000e-01  4.700755e-01  9.933575e-02
     vertex -4.050000e-01  4.700755e-01  9.933575e-02
   endloop
 endfacet
 facet normal  0.000000e+00  1.000000e+00  0.000000e+00
   outer loop
     vertex  4.050000e-01  4.700755e-01  2.093358e-01
     vertex -4.050000e-01  4.700755e-01  9.933575e-02
     vertex -4.050000e-01  4.700755e-01  2.093358e-01
   endloop
 endfacet
 facet normal -1.000000e+00  0.000000e+00  0.000000e+00
   outer loop
     vertex  2.150000e-01  4.000755e-01 -1.406642e-01
     vertex  2.150000e-01  6.500755e-01 -1.406642e-01
     vertex  2.150000e-01  6.500755e-01 -2.606642e-01
   endloop
 endfacet
 facet normal -1.000000e+00  0.000000e+00  0.000000e+00
   outer loop
     vertex  2.150000e-01  3.300755e-01 -8.066425e-02
     vertex  2.150000e-01  4.000755e-01 -1.406642e-01
     vertex  2.150000e-01  3.300755e-01 -1.206642e-01
   endloop
 endfacet
 facet normal -1.000000e+00  0.000000e+00  0.000000e+00
   outer loop
     vertex  2.150000e-01  2.000755e-01 -1.406642e-01
     vertex  2.150000e-01  2.500755e-01 -1.206642e-01
     vertex  2.150000e-01  3.300755e-01 -1.206642e-01
   endloop
 endfacet
 facet normal -1.000000e+00  0.000000e+00  0.000000e+00
   outer loop
     vertex  2.150000e-01  2.000755e-01 -1.406642e-01
     vertex  2.150000e-01  4.000755e-01 -1.406642e-01
     vertex  2.150000e-01  6.500755e-01 -2.606642e-01
   endloop
 endfacet
 facet normal -1.000000e+00  0.000000e+00  0.000000e+00
   outer loop
     vertex  2.150000e-01  2.000755e-01 -1.406642e-01
     vertex  2.150000e-01  3.300755e-01 -1.206642e-01
     vertex  2.150000e-01  4.000755e-01 -1.406642e-01
   endloop
 endfacet
 facet normal -1.000000e+00  0.000000e+00 -0.000000e+00
   outer loop
     vertex  2.150000e-01  2.500755e-01 -8.066425e-02
     vertex  2.150000e-01  2.500755e-01 -1.206642e-01
     vertex  2.150000e-01  2.000755e-01 -1.406642e-01
   endloop
 endfacet
 facet normal -1.000000e+00  0.000000e+00 -0.000000e+00
   outer loop
     vertex  2.150000e-01  4.000755e-01  9.933575e-02
     vertex  2.150000e-01  4.000755e-01 -1.406642e-01
     vertex  2.150000e-01  3.300755e-01 -8.066425e-02
   endloop
 endfacet
 facet normal -1.000000e+00  0.000000e+00  0.000000e+00
   outer loop
     vertex  2.150000e-01  2.000755e-01  9.933575e-02
     vertex  2.150000e-01  3.300755e-01 -8.066425e-02
     vertex  2.150000e-01  2.500755e-01 -8.066425e-02
   endloop
 endfacet
 facet normal -1.000000e+00  0.000000e+00  0.000000e+00
   outer loop
     vertex  2.150000e-01  2.000755e-01  9.933575e-02
     vertex  2.150000e-01  4.000755e-01  9.933575e-02
     vertex  2.150000e-01  3.300755e-01 -8.066425e-02
   endloop
 endfacet
 facet normal -1.000000e+00  0.000000e+00  0.000000e+00
   outer loop
     vertex  2.150000e-01  2.000755e-01  9.933575e-02
     vertex  2.150000e-01  2.500755e-01 -8.066425e-02
     vertex  2.150000e-01  2.000755e-01 -1.406642e-01
   endloop
 endfacet
 facet normal -1.000000e+00  0.000000e+00  0.000000e+00
   outer loop
     vertex  2.150000e-01 -2.599245e-01 -8.066425e-02
     vertex  2.150000e-01 -1.999245e-01 -1.406642e-01
     vertex  2.150000e-01 -2.599245e-01 -1.206642e-01
   endloop
 endfacet
 facet normal -1.000000e+00  0.000000e+00  0.000000e+00
   outer loop
     vertex  2.150000e-01 -3.999245e-01 -1.406642e-01
     vertex  2.150000e-01 -3.399245e-01 -8.066425e-02
     vertex  2.150000e-01 -3.399245e-01 -1.206642e-01
   endloop
 endfacet
 facet normal -1.000000e+00  0.000000e+00  0.000000e+00
   outer loop
     vertex  2.150000e-01 -3.999245e-01 -1.406642e-01
     vertex  2.150000e-01 -3.399245e-01 -1.206642e-01
     vertex  2.150000e-01 -2.599245e-01 -1.206642e-01
   endloop
 endfacet
 facet normal -1.000000e+00  0.000000e+00  0.000000e+00
   outer loop
     vertex  2.150000e-01 -3.999245e-01 -1.406642e-01
     vertex  2.150000e-01 -2.599245e-01 -1.206642e-01
     vertex  2.150000e-01 -1.999245e-01 -1.406642e-01
   endloop
 endfacet
 facet normal -1.000000e+00  0.000000e+00 -0.000000e+00
   outer loop
     vertex  2.150000e-01 -1.999245e-01  9.933575e-02
     vertex  2.150000e-01 -1.999245e-01 -1.406642e-01
     vertex  2.150000e-01 -2.599245e-01 -8.066425e-02
   endloop
 endfacet
 facet normal -1.000000e+00  0.000000e+00  0.000000e+00
   outer loop
     vertex  2.150000e-01 -6.499245e-01 -2.606642e-01
     vertex  2.150000e-01 -3.999245e-01 -1.406642e-01
     vertex  2.150000e-01 -1.999245e-01 -1.406642e-01
   endloop
 endfacet
 facet normal -1.000000e+00  0.000000e+00  0.000000e+00
   outer loop
     vertex  2.150000e-01 -3.999245e-01  9.933575e-02
     vertex  2.150000e-01 -2.599245e-01 -8.066425e-02
     vertex  2.150000e-01 -3.399245e-01 -8.066425e-02
   endloop
 endfacet
 facet normal -1.000000e+00  0.000000e+00  0.000000e+00
   outer loop
     vertex  2.150000e-01 -3.999245e-01  9.933575e-02
     vertex  2.150000e-01 -1.999245e-01  9.933575e-02
     vertex  2.150000e-01 -2.599245e-01 -8.066425e-02
   endloop
 endfacet
 facet normal -1.000000e+00  0.000000e+00  0.000000e+00
   outer loop
     vertex  2.150000e-01 -3.999245e-01  9.933575e-02
     vertex  2.150000e-01 -3.399245e-01 -8.066425e-02
     vertex  2.150000e-01 -3.999245e-01 -1.406642e-01
   endloop
 endfacet
 facet normal -1.000000e+00  0.000000e+00  0.000000e+00
   outer loop
     vertex  2.150000e-01 -6.499245e-01 -1.406642e-01
     vertex  2.150000e-01 -3.999245e-01 -1.406642e-01
     vertex  2.150000e-01 -6.499245e-01 -2.606642e-01
   endloop
 endfacet
 facet normal -1.000000e+00  0.000000e+00  0.000000e+00
   outer loop
     vertex  2.150000e-01 -6.499245e-01 -2.606642e-01
     vertex  2.150000e-01  2.000755e-01 -1.406642e-01
     vertex  2.150000e-01  6.500755e-01 -2.606642e-01
   endloop
 endfacet
 facet normal -1.000000e+00  0.000000e+00  0.000000e+00
   outer loop
     vertex  2.150000e-01 -6.499245e-01 -2.606642e-01
     vertex  2.150000e-01 -1.999245e-01 -1.406642e-01
     vertex  2.150000e-01  2.000755e-01 -1.406642e-01
   endloop
 endfacet
 facet normal  0.000000e+00 -1.000000e+00 -0.000000e+00
   outer loop
     vertex  4.050000e-01 -6.499245e-01 -1.406642e-01
     vertex  2.150000e-01 -6.499245e-01 -2.606642e-01
     vertex  4.050000e-01 -6.499245e-01 -2.606642e-01
   endloop
 endfacet
 facet normal -0.000000e+00 -1.000000e+00  0.000000e+00
   outer loop
     vertex  4.050000e-01 -6.499245e-01 -1.406642e-01
     vertex  2.150000e-01 -6.499245e-01 -1.406642e-01
     vertex  2.150000e-01 -6.499245e-01 -2.606642e-01
   endloop
 endfacet
 facet normal  0.000000e+00  0.000000e+00  1.000000e+00
   outer loop
     vertex  4.050000e-01 -3.999245e-01 -1.406642e-01
     vertex  2.150000e-01 -3.999245e-01 -1.406642e-01
     vertex  2.150000e-01 -6.499245e-01 -1.406642e-01
   endloop
 endfacet
 facet normal  0.000000e+00  0.000000e+00  1.000000e+00
   outer loop
     vertex  4.050000e-01 -3.999245e-01 -1.406642e-01
     vertex  2.150000e-01 -6.499245e-01 -1.406642e-01
     vertex  4.050000e-01 -6.499245e-01 -1.406642e-01
   endloop
 endfacet
 facet normal  0.000000e+00 -1.000000e+00 -0.000000e+00
   outer loop
     vertex  4.050000e-01 -3.999245e-01  9.933575e-02
     vertex  2.150000e-01 -3.999245e-01 -1.406642e-01
     vertex  4.050000e-01 -3.999245e-01 -1.406642e-01
   endloop
 endfacet
 facet normal -0.000000e+00 -1.000000e+00  0.000000e+00
   outer loop
     vertex  4.050000e-01 -3.999245e-01  9.933575e-02
     vertex  2.150000e-01 -3.999245e-01  9.933575e-02
     vertex  2.150000e-01 -3.999245e-01 -1.406642e-01
   endloop
 endfacet
 facet normal  0.000000e+00  1.000000e+00  0.000000e+00
   outer loop
     vertex  4.050000e-01 -1.999245e-01  9.933575e-02
     vertex  4.050000e-01 -1.999245e-01 -1.406642e-01
     vertex  2.150000e-01 -1.999245e-01 -1.406642e-01
   endloop
 endfacet
 facet normal  0.000000e+00  1.000000e+00  0.000000e+00
   outer loop
     vertex  4.050000e-01 -1.999245e-01  9.933575e-02
     vertex  2.150000e-01 -1.999245e-01 -1.406642e-01
     vertex  2.150000e-01 -1.999245e-01  9.933575e-02
   endloop
 endfacet
 facet normal -0.000000e+00  0.000000e+00 -1.000000e+00
   outer loop
     vertex  4.050000e-01  6.500755e-01 -2.606642e-01
     vertex  2.150000e-01 -6.499245e-01 -2.606642e-01
     vertex  2.150000e-01  6.500755e-01 -2.606642e-01
   endloop
 endfacet
 facet normal  0.000000e+00 -0.000000e+00 -1.000000e+00
   outer loop
     vertex  4.050000e-01  6.500755e-01 -2.606642e-01
     vertex  4.050000e-01 -6.499245e-01 -2.606642e-01
     vertex  2.150000e-01 -6.499245e-01 -2.606642e-01
   endloop
 endfacet
 facet normal  0.000000e+00  0.000000e+00  1.000000e+00
   outer loop
     vertex  4.050000e-01  2.000755e-01 -1.406642e-01
     vertex  2.150000e-01  2.000755e-01 -1.406642e-01
     vertex  2.150000e-01 -1.999245e-01 -1.406642e-01
   endloop
 endfacet
 facet normal  0.000000e+00  0.000000e+00  1.000000e+00
   outer loop
     vertex  4.050000e-01  2.000755e-01 -1.406642e-01
     vertex  2.150000e-01 -1.999245e-01 -1.406642e-01
     vertex  4.050000e-01 -1.999245e-01 -1.406642e-01
   endloop
 endfacet
 facet normal  0.000000e+00 -1.000000e+00 -0.000000e+00
   outer loop
     vertex  4.050000e-01  2.000755e-01  9.933575e-02
     vertex  2.150000e-01  2.000755e-01 -1.406642e-01
     vertex  4.050000e-01  2.000755e-01 -1.406642e-01
   endloop
 endfacet
 facet normal -0.000000e+00 -1.000000e+00  0.000000e+00
   outer loop
     vertex  4.050000e-01  2.000755e-01  9.933575e-02
     vertex  2.150000e-01  2.000755e-01  9.933575e-02
     vertex  2.150000e-01  2.000755e-01 -1.406642e-01
   endloop
 endfacet
 facet normal  0.000000e+00  1.000000e+00  0.000000e+00
   outer loop
     vertex  4.050000e-01  4.000755e-01  9.933575e-02
     vertex  4.050000e-01  4.000755e-01 -1.406642e-01
     vertex  2.150000e-01  4.000755e-01 -1.406642e-01
   endloop
 endfacet
 facet normal  0.000000e+00  1.000000e+00  0.000000e+00
   outer loop
     vertex  4.050000e-01  4.000755e-01  9.933575e-02
     vertex  2.150000e-01  4.000755e-01 -1.406642e-01
     vertex  2.150000e-01  4.000755e-01  9.933575e-02
   endloop
 endfacet
 facet normal  0.000000e+00  0.000000e+00  1.000000e+00
   outer loop
     vertex  4.050000e-01  6.500755e-01 -1.406642e-01
     vertex  2.150000e-01  6.500755e-01 -1.406642e-01
     vertex  2.150000e-01  4.000755e-01 -1.406642e-01
   endloop
 endfacet
 facet normal  0.000000e+00  0.000000e+00  1.000000e+00
   outer loop
     vertex  4.050000e-01  6.500755e-01 -1.406642e-01
     vertex  2.150000e-01  4.000755e-01 -1.406642e-01
     vertex  4.050000e-01  4.000755e-01 -1.406642e-01
   endloop
 endfacet
 facet normal  0.000000e+00  1.000000e+00  0.000000e+00
   outer loop
     vertex  4.050000e-01  6.500755e-01 -1.406642e-01
     vertex  4.050000e-01  6.500755e-01 -2.606642e-01
     vertex  2.150000e-01  6.500755e-01 -2.606642e-01
   endloop
 endfacet
 facet normal  0.000000e+00  1.000000e+00  0.000000e+00
   outer loop
     vertex  4.050000e-01  6.500755e-01 -1.406642e-01
     vertex  2.150000e-01  6.500755e-01 -2.606642e-01
     vertex  2.150000e-01  6.500755e-01 -1.406642e-01
   endloop
 endfacet
 facet normal  1.000000e+00 -0.000000e+00  0.000000e+00
   outer loop
     vertex  4.050000e-01  4.000755e-01 -1.406642e-01
     vertex  4.050000e-01  6.500755e-01 -2.606642e-01
     vertex  4.050000e-01  6.500755e-01 -1.406642e-01
   endloop
 endfacet
 facet normal  1.000000e+00 -0.000000e+00  0.000000e+00
   outer loop
     vertex  4.050000e-01  2.000755e-01 -1.406642e-01
     vertex  4.050000e-01  6.500755e-01 -2.606642e-01
     vertex  4.050000e-01  4.000755e-01 -1.406642e-01
   endloop
 endfacet
 facet normal  1.000000e+00  0.000000e+00  0.000000e+00
   outer loop
     vertex  4.050000e-01  4.700755e-01  2.093358e-01
     vertex  4.050000e-01  4.000755e-01  9.933575e-02
     vertex  4.050000e-01  4.700755e-01  9.933575e-02
   endloop
 endfacet
 facet normal  1.000000e+00 -0.000000e+00  0.000000e+00
   outer loop
     vertex  4.050000e-01  2.000755e-01  9.933575e-02
     vertex  4.050000e-01  4.000755e-01 -1.406642e-01
     vertex  4.050000e-01  4.000755e-01  9.933575e-02
   endloop
 endfacet
 facet normal  1.000000e+00  0.000000e+00  0.000000e+00
   outer loop
     vertex  4.050000e-01  2.000755e-01  9.933575e-02
     vertex  4.050000e-01  4.000755e-01  9.933575e-02
     vertex  4.050000e-01  4.700755e-01  2.093358e-01
   endloop
 endfacet
 facet normal  1.000000e+00  0.000000e+00  0.000000e+00
   outer loop
     vertex  4.050000e-01  2.000755e-01  9.933575e-02
     vertex  4.050000e-01  2.000755e-01 -1.406642e-01
     vertex  4.050000e-01  4.000755e-01 -1.406642e-01
   endloop
 endfacet
 facet normal  1.000000e+00  0.000000e+00  0.000000e+00
   outer loop
     vertex  4.050000e-01 -6.499245e-01 -2.606642e-01
     vertex  4.050000e-01 -1.999245e-01 -1.406642e-01
     vertex  4.050000e-01 -3.999245e-01 -1.406642e-01
   endloop
 endfacet
 facet normal  1.000000e+00 -0.000000e+00  0.000000e+00
   outer loop
     vertex  4.050000e-01 -3.999245e-01  9.933575e-02
     vertex  4.050000e-01 -1.999245e-01 -1.406642e-01
     vertex  4.050000e-01 -1.999245e-01  9.933575e-02
   endloop
 endfacet
 facet normal  1.000000e+00  0.000000e+00  0.000000e+00
   outer loop
     vertex  4.050000e-01 -3.999245e-01  9.933575e-02
     vertex  4.050000e-01 -3.999245e-01 -1.406642e-01
     vertex  4.050000e-01 -1.999245e-01 -1.406642e-01
   endloop
 endfacet
 facet normal  1.000000e+00 -0.000000e+00  0.000000e+00
   outer loop
     vertex  4.050000e-01 -6.499245e-01 -1.406642e-01
     vertex  4.050000e-01 -6.499245e-01 -2.606642e-01
     vertex  4.050000e-01 -3.999245e-01 -1.406642e-01
   endloop
 endfacet
 facet normal  1.000000e+00  0.000000e+00  0.000000e+00
   outer loop
     vertex  4.050000e-01 -4.699245e-01  2.093358e-01
     vertex  4.050000e-01 -4.699245e-01  9.933575e-02
     vertex  4.050000e-01 -3.999245e-01  9.933575e-02
   endloop
 endfacet
 facet normal  1.000000e+00  0.000000e+00  0.000000e+00
   outer loop
     vertex  4.050000e-01 -4.699245e-01  2.093358e-01
     vertex  4.050000e-01 -1.999245e-01  9.933575e-02
     vertex  4.050000e-01  2.000755e-01  9.933575e-02
   endloop
 endfacet
 facet normal  1.000000e+00 -0.000000e+00  0.000000e+00
   outer loop
     vertex  4.050000e-01 -4.699245e-01  2.093358e-01
     vertex  4.050000e-01  2.000755e-01  9.933575e-02
     vertex  4.050000e-01  4.700755e-01  2.093358e-01
   endloop
 endfacet
 facet normal  1.000000e+00  0.000000e+00  0.000000e+00
   outer loop
     vertex  4.050000e-01 -4.699245e-01  2.093358e-01
     vertex  4.050000e-01 -3.999245e-01  9.933575e-02
     vertex  4.050000e-01 -1.999245e-01  9.933575e-02
   endloop
 endfacet
 facet normal  1.000000e+00  0.000000e+00  0.000000e+00
   outer loop
     vertex  4.050000e-01 -6.499245e-01 -2.606642e-01
     vertex  4.050000e-01  6.500755e-01 -2.606642e-01
     vertex  4.050000e-01  2.000755e-01 -1.406642e-01
   endloop
 endfacet
 facet normal  1.000000e+00  0.000000e+00  0.000000e+00
   outer loop
     vertex  4.050000e-01 -6.499245e-01 -2.606642e-01
     vertex  4.050000e-01  2.000755e-01 -1.406642e-01
     vertex  4.050000e-01 -1.999245e-01 -1.406642e-01
   endloop
 endfacet
endsolid
